<svg id="bf391d5f-ae85-411f-b189-671b47ced642" data-name="Layer 1" xmlns="http://www.w3.org/2000/svg" width="612" height="792" viewBox="0 0 612 792">
  <defs>
    <style>
      .aeb9e23c-83f1-48cb-86c9-ddfd16c05f4b, .b20f01b1-6c3b-4950-a078-75c2f8cfe16f, .b4099052-b762-4146-b951-8d5aed586636 {
        fill: #143156;
      }

      .b1f68292-d488-4706-b35f-2ac05237073a, .b4099052-b762-4146-b951-8d5aed586636, .e1d88aeb-66f8-4431-ac42-e0fcbf06c868 {
        stroke: #f1f2f2;
      }

      .a24297fc-8c34-4ab2-86bf-200bea3434ed, .a34a69e8-93d1-436a-8675-56823bbc7299, .aeb9e23c-83f1-48cb-86c9-ddfd16c05f4b, .b1f68292-d488-4706-b35f-2ac05237073a, .b4099052-b762-4146-b951-8d5aed586636, .e1d88aeb-66f8-4431-ac42-e0fcbf06c868 {
        stroke-miterlimit: 10;
        stroke-width: 4px;
      }

      .a24297fc-8c34-4ab2-86bf-200bea3434ed, .b1f68292-d488-4706-b35f-2ac05237073a {
        fill: #b2a268;
      }

      .a34a69e8-93d1-436a-8675-56823bbc7299, .a627e8a5-80ff-46e4-ab78-9dceaa3ea4ca, .e1d88aeb-66f8-4431-ac42-e0fcbf06c868 {
        fill: #e5e5e5;
      }

      .a0a426c5-ec3f-4554-b906-121159b04a4b {
        fill: #fefefe;
      }

      .a34a69e8-93d1-436a-8675-56823bbc7299 {
        stroke: #e5e5e5;
      }

      .f8f2e1cd-604e-495a-9364-29e2a52aeeda {
        fill: #231f20;
      }

      .aeb9e23c-83f1-48cb-86c9-ddfd16c05f4b {
        stroke: #143156;
      }

      .a24297fc-8c34-4ab2-86bf-200bea3434ed {
        stroke: #b2a268;
      }
    </style>
  </defs>
  <g>
    <g>
      <path class="b4099052-b762-4146-b951-8d5aed586636" d="M204.8125,527.8821a248.4571,248.4571,0,0,1-68.0646-43.5229c-41.2231-36.698-69.0793-81.9012-80.5854-135.88-20.2232-94.8748,3.9516-177.5838,72.9687-245.9961,39.341-38.9963,87.5426-61.5125,142.3339-69.8783a247.548,247.548,0,0,1,43.2913-2.4728c-4.1285-.1424-5.0308,1.9005-5.0149,5.8554.1657,41.1833.1144,82.3675.1233,123.5515a148.2783,148.2783,0,0,0-27.7835,3.1822c-61.7088,13.1687-106.2074,68.7949-102.6856,133.07,1.8835,34.3755,15.13,63.3724,39.3035,87.6,11.22,11.2447,24.6212,19.2492,38.8468,26.0148-1.8749.82-2.1721,2.647-2.8959,4.2854-11.409,25.8247-23.0154,51.5632-34.261,77.4585C215.0927,503.3458,209.0288,515.2259,204.8125,527.8821Z"/>
      <path class="b1f68292-d488-4706-b35f-2ac05237073a" d="M204.8125,527.8821c4.2163-12.6562,10.28-24.5363,15.5766-36.7322,11.2456-25.8953,22.852-51.6338,34.261-77.4585.7238-1.6384,1.021-3.4656,2.8968-4.285a136.3469,136.3469,0,0,0,70.76,8.7995c60.9784-8.44,108.9691-61.4685,110.8626-122.9679a131.4373,131.4373,0,0,0-16.4059-68.6727c2.18-.9206,4.4586-1.6606,6.5249-2.7892,25.4239-13.8852,50.92-27.6443,76.1679-41.8431,10.3422-5.8161,21.1272-10.897,30.8686-17.7658,9.14,14.1,15.2372,29.6622,20.0188,45.5557,26.0025,86.4286,13.0379,166.6878-41.5916,238.7274-43.7392,57.6783-103.2117,90.09-174.6784,99.4324C293.3931,553.9849,248.0408,547.1225,204.8125,527.8821Z"/>
      <path class="e1d88aeb-66f8-4431-ac42-e0fcbf06c868" d="M536.3255,164.1672c-9.7414,6.8688-20.5264,11.95-30.8686,17.7658-25.2482,14.1988-50.744,27.9579-76.1679,41.8431-2.0663,1.1286-4.3449,1.8686-6.5251,2.7885-15.606-26.7981-37.55-46.2254-66.4507-57.8416-14.9611-6.0133-30.6223-7.8672-46.4484-9.1844-.0089-41.184.0424-82.3682-.1233-123.5515-.0159-3.9549.8864-5.9978,5.0149-5.8554C390.58,32.36,453.673,61.9794,504.27,118.3547A221.9312,221.9312,0,0,1,536.3255,164.1672Z"/>
      <path class="a0a426c5-ec3f-4554-b906-121159b04a4b" d="M309.8648,159.5386c15.8261,1.3172,31.4873,3.1711,46.4484,9.1844,28.9009,11.6162,50.8447,31.0435,66.4507,57.8416A131.44,131.44,0,0,1,439.17,295.238c-1.8935,61.4994-49.8842,114.5283-110.8626,122.9679a136.3469,136.3469,0,0,1-70.76-8.7995c-14.2265-6.766-27.6282-14.7705-38.8477-26.0152-24.1736-24.2279-37.42-53.2248-39.3035-87.6-3.5218-64.2752,40.9768-119.9014,102.6856-133.07A148.2783,148.2783,0,0,1,309.8648,159.5386Z"/>
    </g>
    <g>
      <path class="b20f01b1-6c3b-4950-a078-75c2f8cfe16f" d="M417.859,419.4707l4.8672-.6016q.4776,2.5562,2.7344,2.5567a2.5267,2.5267,0,0,0,1.668-.5332,1.7709,1.7709,0,0,0,.6426-1.4356,1.7012,1.7012,0,0,0-.3487-1.06,2.0515,2.0515,0,0,0-.7451-.6426,3.5584,3.5584,0,0,0-1.3672-.1846h-2.2695v-3.8965h1.9141q1.5308,0,1.9687-.5468a1.8013,1.8013,0,0,0,.4375-1.1348,1.5876,1.5876,0,0,0-.5469-1.2305,2.0665,2.0665,0,0,0-1.4355-.4922,2.259,2.259,0,0,0-2.3379,2.1328l-4.5117-.7109a6.6322,6.6322,0,0,1,2.6045-4.0469,8.8288,8.8288,0,0,1,9.6318.0137,4.5931,4.5931,0,0,1,1.8584,3.8281,4.1047,4.1047,0,0,1-.7852,2.502,3.8223,3.8223,0,0,1-2.0029,1.4355,4.2467,4.2467,0,0,1,3.3623,4.3887,4.85,4.85,0,0,1-2.043,4.1631,8.8044,8.8044,0,0,1-5.2978,1.4834Q419.321,425.459,417.859,419.4707Z"/>
      <path class="b20f01b1-6c3b-4950-a078-75c2f8cfe16f" d="M435.18,420.4688l4.7852-.7657q.3,1.7228,1.791,1.7227a1.9633,1.9633,0,0,0,1.7979-1.0938,6.1059,6.1059,0,0,0,.622-3.0078c0-.1455-.0049-.333-.0136-.5605a4.1166,4.1166,0,0,1-3.6368,1.8047,5.6436,5.6436,0,0,1-4.1836-1.668,5.7865,5.7865,0,0,1-1.6542-4.252,6.0126,6.0126,0,0,1,1.9482-4.6279,7.41,7.41,0,0,1,5.23-1.7978,6.7615,6.7615,0,0,1,5.7012,2.4951,10.4753,10.4753,0,0,1,1.9277,6.583,12.4063,12.4063,0,0,1-2.0029,7.3281,6.8335,6.8335,0,0,1-5.9678,2.83,6.7065,6.7065,0,0,1-4.2861-1.333A5.5813,5.5813,0,0,1,435.18,420.4688Zm6.6172-5.8653a2.0873,2.0873,0,0,0,1.4629-.581,2.1329,2.1329,0,0,0,.6289-1.6475,2.4382,2.4382,0,0,0-.5742-1.709,1.88,1.88,0,0,0-1.4492-.6289,1.9005,1.9005,0,0,0-1.4014.5879,2.41,2.41,0,0,0-.581,1.7637,2.3129,2.3129,0,0,0,.54,1.6269A1.786,1.786,0,0,0,441.7975,414.6035Z"/>
      <path class="b20f01b1-6c3b-4950-a078-75c2f8cfe16f" d="M456.7956,420.1816v4.99H451.6v-4.99Z"/>
      <path class="b20f01b1-6c3b-4950-a078-75c2f8cfe16f" d="M473.2975,411.7871l-4.7715.5742q-.22-2.2427-1.8242-2.2422-2.3189,0-2.3867,4.8536A4.1114,4.1114,0,0,1,468.08,413.25a5.4819,5.4819,0,0,1,4.1152,1.627,5.7546,5.7546,0,0,1,1.581,4.1835,5.96,5.96,0,0,1-2.0029,4.5391,7.2855,7.2855,0,0,1-5.1611,1.8594,7.67,7.67,0,0,1-4.1153-1.1143,6.86,6.86,0,0,1-2.7207-3.2881A13.54,13.54,0,0,1,460.87,409.06a6.5991,6.5991,0,0,1,5.7285-2.8369,7.03,7.03,0,0,1,4.4775,1.4423A6.0924,6.0924,0,0,1,473.2975,411.7871Zm-6.8564,9.8711a1.9035,1.9035,0,0,0,1.5088-.6426,2.3029,2.3029,0,0,0,.5625-1.5722,2.4628,2.4628,0,0,0-.5557-1.6,1.79,1.79,0,0,0-1.4609-.6836,1.9669,1.9669,0,0,0-1.5362.6767,2.3514,2.3514,0,0,0-.6035,1.62,2.2547,2.2547,0,0,0,.5762,1.5586A1.9284,1.9284,0,0,0,466.4411,421.6582Z"/>
      <path class="b20f01b1-6c3b-4950-a078-75c2f8cfe16f" d="M479.0807,415.9707a3.2964,3.2964,0,0,1-2.7549-1.3193,5.5909,5.5909,0,0,1-1.0185-3.5069,5.3821,5.3821,0,0,1,1.0459-3.5068,3.4133,3.4133,0,0,1,2.7822-1.2783,3.2387,3.2387,0,0,1,2.7891,1.36,5.84,5.84,0,0,1,.9844,3.5069,5.2879,5.2879,0,0,1-1.0528,3.4658A3.4182,3.4182,0,0,1,479.0807,415.9707Zm12.2637-9.4609-11.3379,18.6621h-2.58l11.418-18.6621Zm-12.2568,7.4238q.9637,0,.9638-2.7344a9.1168,9.1168,0,0,0-.1836-2.0234q-.183-.7792-.7666-.7793-.936,0-.9365,2.6387a8.7881,8.7881,0,0,0,.1963,2.2627Q478.5587,413.9336,479.0876,413.9336Zm10.6093,11.375a3.2936,3.2936,0,0,1-2.7461-1.3174,5.5645,5.5645,0,0,1-1.0205-3.5019,5.4124,5.4124,0,0,1,1.0411-3.5088,3.608,3.608,0,0,1,5.5126-.0069,5.5284,5.5284,0,0,1,1.0479,3.5977,5.2749,5.2749,0,0,1-1.0547,3.4541A3.422,3.422,0,0,1,489.6969,425.3086Zm.0274-2.0371q.9771,0,.9775-2.7276a9.3927,9.3927,0,0,0-.1787-2.0253q-.18-.7837-.7715-.7842-.9639,0-.9638,2.6181a8.778,8.778,0,0,0,.1992,2.292A.7569.7569,0,0,0,489.7243,423.2715Z"/>
    </g>
    <g>
      <path class="a627e8a5-80ff-46e4-ab78-9dceaa3ea4ca" d="M96.6383,260.61h-2.625v4.1015h-5.14V260.61H81.2448v-4.0606l7.0273-10.7871h5.7412v10.7871h2.625Zm-7.7646-4.0606v-5.5742l-3.5332,5.5742Z"/>
      <path class="a627e8a5-80ff-46e4-ab78-9dceaa3ea4ca" d="M97.2946,259.01l4.8672-.6016q.4789,2.5561,2.7344,2.5566a2.5259,2.5259,0,0,0,1.6679-.5332,1.7678,1.7678,0,0,0,.6426-1.4355,1.7014,1.7014,0,0,0-.3486-1.06,2.0452,2.0452,0,0,0-.7451-.6426,3.558,3.558,0,0,0-1.3672-.1845h-2.27v-3.8965H104.39q1.5307,0,1.9687-.5469a1.7957,1.7957,0,0,0,.4375-1.1348,1.5878,1.5878,0,0,0-.5468-1.23,2.063,2.063,0,0,0-1.4356-.4922,2.2591,2.2591,0,0,0-2.3379,2.1328l-4.5117-.7109a6.6323,6.6323,0,0,1,2.6045-4.0469,8.8283,8.8283,0,0,1,9.6318.0137,4.594,4.594,0,0,1,1.8594,3.8281,4.0993,4.0993,0,0,1-.7861,2.5019,3.8151,3.8151,0,0,1-2.0029,1.4356,4.2466,4.2466,0,0,1,3.3632,4.3887,4.8484,4.8484,0,0,1-2.0439,4.163,8.802,8.802,0,0,1-5.2979,1.4834Q98.758,264.9985,97.2946,259.01Z"/>
      <path class="a627e8a5-80ff-46e4-ab78-9dceaa3ea4ca" d="M119.8122,259.7212v4.99h-5.1953v-4.99Z"/>
      <path class="a627e8a5-80ff-46e4-ab78-9dceaa3ea4ca" d="M137.1755,260.61h-2.625v4.1015H129.41V260.61h-7.6289v-4.0606l7.0274-10.7871h5.7422v10.7871h2.625Zm-7.7657-4.0606v-5.5742l-3.5332,5.5742Z"/>
      <path class="a627e8a5-80ff-46e4-ab78-9dceaa3ea4ca" d="M142.0973,255.51a3.2965,3.2965,0,0,1-2.7549-1.3194,5.5906,5.5906,0,0,1-1.0185-3.5068,5.3824,5.3824,0,0,1,1.0459-3.5069,3.4133,3.4133,0,0,1,2.7822-1.2783,3.2388,3.2388,0,0,1,2.7891,1.36,5.8393,5.8393,0,0,1,.9844,3.5068,5.2878,5.2878,0,0,1-1.0528,3.4658A3.418,3.418,0,0,1,142.0973,255.51Zm12.2637-9.461-11.3379,18.6621h-2.58l11.418-18.6621Zm-12.2568,7.4238q.9638,0,.9638-2.7343a9.1184,9.1184,0,0,0-.1836-2.0235q-.183-.7793-.7666-.7793-.936,0-.9365,2.6387a8.7871,8.7871,0,0,0,.1963,2.2627Q141.5753,253.4731,142.1042,253.4731Zm10.6093,11.375a3.2936,3.2936,0,0,1-2.7461-1.3173,5.5648,5.5648,0,0,1-1.02-3.502,5.4126,5.4126,0,0,1,1.0411-3.5088,3.608,3.608,0,0,1,5.5127-.0068,5.5287,5.5287,0,0,1,1.0478,3.5976,5.2747,5.2747,0,0,1-1.0547,3.4541A3.422,3.422,0,0,1,152.7135,264.8481Zm.0274-2.0371q.9771,0,.9775-2.7275a9.393,9.393,0,0,0-.1787-2.0254q-.18-.7838-.7715-.7842-.9638,0-.9638,2.6182a8.7785,8.7785,0,0,0,.1992,2.292A.7568.7568,0,0,0,152.7409,262.811Z"/>
    </g>
    <g>
      <path class="b20f01b1-6c3b-4950-a078-75c2f8cfe16f" d="M386.7673,135.1465h4.4013v4.1562H376.8141v-4.1562h4.6074v-8.8731a16.7926,16.7926,0,0,1-4.1015,1.3672v-4.1972q3.9785-.8614,5.4-3.09h4.0469Z"/>
      <path class="b20f01b1-6c3b-4950-a078-75c2f8cfe16f" d="M405.21,120.6406v3.5a20.89,20.89,0,0,0-3.5,6.3711,22.0405,22.0405,0,0,0-1.4629,7.6153q0,.3559.0547,1.1757h-6.166a18.9967,18.9967,0,0,1,1.6065-7.1914,22.312,22.312,0,0,1,4.3134-6.7949H391.401l.3965-4.6758Z"/>
      <path class="b20f01b1-6c3b-4950-a078-75c2f8cfe16f" d="M411.1706,130.1016a3.2962,3.2962,0,0,1-2.7549-1.3194,5.5906,5.5906,0,0,1-1.0186-3.5068,5.3825,5.3825,0,0,1,1.0459-3.5068,3.4131,3.4131,0,0,1,2.7823-1.2784,3.2385,3.2385,0,0,1,2.789,1.36,5.8388,5.8388,0,0,1,.9844,3.5068,5.2883,5.2883,0,0,1-1.0527,3.4658A3.4182,3.4182,0,0,1,411.1706,130.1016Zm12.2636-9.461-11.3378,18.6621h-2.58l11.4179-18.6621Zm-12.2568,7.4239q.9639,0,.9639-2.7344a9.1184,9.1184,0,0,0-.1836-2.0235q-.1832-.7793-.7666-.7793-.936,0-.9365,2.6387a8.7929,8.7929,0,0,0,.1962,2.2627Q410.6486,128.0644,411.1774,128.0645Zm10.6094,11.375a3.2936,3.2936,0,0,1-2.7461-1.3174,5.5642,5.5642,0,0,1-1.0205-3.502,5.4131,5.4131,0,0,1,1.041-3.5088,3.608,3.608,0,0,1,5.5127-.0068,5.5288,5.5288,0,0,1,1.0478,3.5976,5.2752,5.2752,0,0,1-1.0546,3.4542A3.4224,3.4224,0,0,1,421.7868,139.44Zm.0273-2.0372q.9771,0,.9776-2.7275a9.4007,9.4007,0,0,0-.1787-2.0254q-.18-.7836-.7715-.7842-.9639,0-.9639,2.6182a8.7785,8.7785,0,0,0,.1992,2.292A.7568.7568,0,0,0,421.8141,137.4023Z"/>
    </g>
  </g>
  <g>
    <circle class="a34a69e8-93d1-436a-8675-56823bbc7299" cx="89.447" cy="600.3333" r="15.3333"/>
    <g>
      <path class="f8f2e1cd-604e-495a-9364-29e2a52aeeda" d="M125.2594,590.3369l-5.3554,9.2695v6.7266H117.9v-6.7266l-5.3555-9.2695h2.3691l4.2452,7.35,4.2734-7.35Z"/>
      <path class="f8f2e1cd-604e-495a-9364-29e2a52aeeda" d="M133.24,602.8057l1.7109.3515a4.8158,4.8158,0,0,1-1.8281,2.5108,5.2761,5.2761,0,0,1-3.1992.9931,4.9767,4.9767,0,0,1-3.9258-1.706,7.451,7.451,0,0,1,.0586-9.044,5.0315,5.0315,0,0,1,3.9141-1.7422,4.7282,4.7282,0,0,1,3.7324,1.6055,7.2191,7.2191,0,0,1,1.4473,4.8047h-8.6016q0,2.6836,1.125,3.6211a3.664,3.664,0,0,0,2.3789.9375A3.2506,3.2506,0,0,0,133.24,602.8057Zm-.1055-3.5977a5.1349,5.1349,0,0,0-.3281-1.7695,3.0191,3.0191,0,0,0-1.0312-1.3184,2.8271,2.8271,0,0,0-1.7461-.5449,3.1184,3.1184,0,0,0-2.3262.9844,4.0744,4.0744,0,0,0-1.0723,2.6484Z"/>
      <path class="f8f2e1cd-604e-495a-9364-29e2a52aeeda" d="M136.3219,603.2627l1.7579-.3633q.5859,2.2383,3.7031,2.2383a3.5053,3.5053,0,0,0,1.9453-.5147,1.6339,1.6339,0,0,0,.7969-1.4511q0-1.3931-2.0284-1.7676l-2.4951-.4736a4.5554,4.5554,0,0,1-2.332-1.1016,2.8453,2.8453,0,0,1-.8672-2.168,3.134,3.134,0,0,1,1.1836-2.49,4.7722,4.7722,0,0,1,3.1875-1.002q3.8555,0,4.7578,3.0118l-1.6875.3632a2.8869,2.8869,0,0,0-2.9883-1.8515,3.359,3.359,0,0,0-1.8457.4629,1.4549,1.4549,0,0,0-.7207,1.2929q0,1.3111,1.8408,1.65l2.3077.4141q3.621.6577,3.6211,3.51a3.1354,3.1354,0,0,1-1.3477,2.6357,5.8641,5.8641,0,0,1-3.5859,1.0029Q137.3181,606.6611,136.3219,603.2627Z"/>
    </g>
    <circle class="aeb9e23c-83f1-48cb-86c9-ddfd16c05f4b" cx="89.447" cy="661.0901" r="15.3333"/>
    <g>
      <path class="f8f2e1cd-604e-495a-9364-29e2a52aeeda" d="M125.2594,652.0938l-5.3554,9.2695V668.09H117.9v-6.7265l-5.3555-9.2695h2.3691l4.2452,7.35,4.2734-7.35Z"/>
      <path class="f8f2e1cd-604e-495a-9364-29e2a52aeeda" d="M133.24,664.5625l1.7109.3516a4.8156,4.8156,0,0,1-1.8281,2.5107,5.2762,5.2762,0,0,1-3.1992.9932,4.9768,4.9768,0,0,1-3.9258-1.7061,7.4508,7.4508,0,0,1,.0586-9.0439,5.0312,5.0312,0,0,1,3.9141-1.7422,4.7279,4.7279,0,0,1,3.7324,1.6055,7.2188,7.2188,0,0,1,1.4473,4.8046h-8.6016q0,2.6836,1.125,3.6211a3.664,3.664,0,0,0,2.3789.9375A3.2506,3.2506,0,0,0,133.24,664.5625Zm-.1055-3.5977a5.1353,5.1353,0,0,0-.3281-1.7695,3.0182,3.0182,0,0,0-1.0312-1.3183,2.8272,2.8272,0,0,0-1.7461-.545,3.1188,3.1188,0,0,0-2.3262.9844,4.0748,4.0748,0,0,0-1.0723,2.6484Z"/>
      <path class="f8f2e1cd-604e-495a-9364-29e2a52aeeda" d="M136.3219,665.02l1.7579-.3632q.5859,2.2382,3.7031,2.2382a3.5061,3.5061,0,0,0,1.9453-.5146,1.6341,1.6341,0,0,0,.7969-1.4512q0-1.3931-2.0284-1.7676l-2.4951-.4736a4.5554,4.5554,0,0,1-2.332-1.1016,2.8451,2.8451,0,0,1-.8672-2.1679,3.1342,3.1342,0,0,1,1.1836-2.49,4.7727,4.7727,0,0,1,3.1875-1.0019q3.8555,0,4.7578,3.0117l-1.6875.3633a2.8869,2.8869,0,0,0-2.9883-1.8516,3.359,3.359,0,0,0-1.8457.4629,1.4551,1.4551,0,0,0-.7207,1.293q0,1.311,1.8408,1.65l2.3077.414q3.621.6577,3.6211,3.51a3.1354,3.1354,0,0,1-1.3477,2.6357,5.8635,5.8635,0,0,1-3.5859,1.003Q137.3181,668.418,136.3219,665.02Z"/>
      <path class="f8f2e1cd-604e-495a-9364-29e2a52aeeda" d="M151.486,665.418V667.82l-1.7461,3.2813h-.9961l1.3828-3.0118h-1.1953V665.418Z"/>
      <path class="f8f2e1cd-604e-495a-9364-29e2a52aeeda" d="M162.9469,652.0938v2.0507h-1.98v-2.0507Zm-.0586,4.16V668.09h-1.84V656.2539Z"/>
      <path class="f8f2e1cd-604e-495a-9364-29e2a52aeeda" d="M171.4665,656.2539v1.4414H168.654V668.09h-1.84V657.6953h-2.0156v-1.4414h2.0156q.047-2.8476,1.0957-3.668a4.03,4.03,0,0,1,2.5606-.82,10.03,10.03,0,0,1,1.6875.1641v1.4648a4.6084,4.6084,0,0,0-1.1367-.1523,2.5722,2.5722,0,0,0-1.7872.5332,2.676,2.676,0,0,0-.58,1.998v.4805Z"/>
      <path class="f8f2e1cd-604e-495a-9364-29e2a52aeeda" d="M181.65,652.0938v2.0507H179.67v-2.0507Zm-.0586,4.16V668.09h-1.84V656.2539Z"/>
      <path class="f8f2e1cd-604e-495a-9364-29e2a52aeeda" d="M190.6266,666.8359v1.4532a13.0892,13.0892,0,0,1-1.6875.1289q-3.4335,0-3.4336-3.59v-7.1328h-2.0976v-1.4414h2.0976l.0821-2.9766,1.7109-.164v3.1406h2.6484v1.4414h-2.6484v7.44q0,1.83,1.8984,1.83A9.038,9.038,0,0,0,190.6266,666.8359Z"/>
      <path class="f8f2e1cd-604e-495a-9364-29e2a52aeeda" d="M200.5407,652.0938v2.0507h-1.98v-2.0507Zm-.0586,4.16V668.09h-1.84V656.2539Z"/>
      <path class="f8f2e1cd-604e-495a-9364-29e2a52aeeda" d="M202.5563,665.02l1.7578-.3632q.5861,2.2382,3.7032,2.2382a3.5061,3.5061,0,0,0,1.9453-.5146,1.634,1.634,0,0,0,.7968-1.4512q0-1.3931-2.0283-1.7676l-2.4951-.4736a4.555,4.555,0,0,1-2.332-1.1016,2.8447,2.8447,0,0,1-.8672-2.1679,3.1342,3.1342,0,0,1,1.1836-2.49,4.7723,4.7723,0,0,1,3.1875-1.0019q3.8554,0,4.7578,3.0117l-1.6875.3633a2.8869,2.8869,0,0,0-2.9883-1.8516,3.359,3.359,0,0,0-1.8457.4629,1.4549,1.4549,0,0,0-.7207,1.293q0,1.311,1.8408,1.65l2.3076.414q3.6211.6577,3.6211,3.51a3.1353,3.1353,0,0,1-1.3476,2.6357,5.864,5.864,0,0,1-3.586,1.003Q203.5525,668.418,202.5563,665.02Z"/>
      <path class="f8f2e1cd-604e-495a-9364-29e2a52aeeda" d="M224.611,668.09h-1.7227v-7.6054a3.0689,3.0689,0,0,0-.7148-2.3086,2.4482,2.4482,0,0,0-1.7344-.668,2.9784,2.9784,0,0,0-2.3613,1.125,4.4254,4.4254,0,0,0-.9551,2.9649V668.09h-1.84V656.2539h1.7109v2.18a4.2594,4.2594,0,0,1,3.7383-2.5078,3.7011,3.7011,0,0,1,2.2559.6855,3.6384,3.6384,0,0,1,1.2773,1.541,9.366,9.366,0,0,1,.3457,3.0938Z"/>
      <path class="f8f2e1cd-604e-495a-9364-29e2a52aeeda" d="M230.6579,652.0938v2.3789l-1.5821,2.8007h-.82l1.16-2.8007h-1.16v-2.3789Z"/>
      <path class="f8f2e1cd-604e-495a-9364-29e2a52aeeda" d="M239.6579,666.8359v1.4532a13.0918,13.0918,0,0,1-1.6875.1289q-3.4337,0-3.4336-3.59v-7.1328h-2.0977v-1.4414h2.0977l.082-2.9766,1.711-.164v3.1406h2.6484v1.4414H236.33v7.44q0,1.83,1.8984,1.83A9.039,9.039,0,0,0,239.6579,666.8359Z"/>
      <path class="f8f2e1cd-604e-495a-9364-29e2a52aeeda" d="M256.9313,668.09h-1.8164q-.1054-.5625-.2109-2.1328a4.2633,4.2633,0,0,1-4.1485,2.461,4.1632,4.1632,0,0,1-3.0586-1.0557,3.4437,3.4437,0,0,1-1.0664-2.5352,3.5543,3.5543,0,0,1,1.5235-2.9521q1.5234-1.1557,5.18-1.1562.4922,0,1.57.0468a6.8142,6.8142,0,0,0-.2168-2.0332,1.812,1.812,0,0,0-.92-1.0019,3.9363,3.9363,0,0,0-1.8516-.375q-2.8008,0-3.2578,2.1328l-1.6992-.293q.621-3.27,5.2265-3.2695a4.638,4.638,0,0,1,3.4746,1.084,5.4286,5.4286,0,0,1,1.0254,3.7558v5.0274A10.0074,10.0074,0,0,0,256.9313,668.09Zm-2.0273-5.9179q-1.125-.07-1.711-.07a6.6672,6.6672,0,0,0-3.3867.7168,2.2923,2.2923,0,0,0-1.207,2.0908,1.9555,1.9555,0,0,0,.65,1.48,2.6467,2.6467,0,0,0,1.8808.61,3.4934,3.4934,0,0,0,2.7364-1.21,4.1483,4.1483,0,0,0,1.0722-2.8427Q254.9391,662.6191,254.904,662.1719Z"/>
      <path class="f8f2e1cd-604e-495a-9364-29e2a52aeeda" d="M275.6462,668.09h-1.84v-7.1835a8.4317,8.4317,0,0,0-.1582-1.8985,1.9968,1.9968,0,0,0-.75-1.0957,2.1537,2.1537,0,0,0-1.3652-.4629,2.9557,2.9557,0,0,0-2.3731,1.16,4.7352,4.7352,0,0,0-.955,3.1054v6.375h-1.84v-15.996h1.84v6.34a3.9039,3.9039,0,0,1,3.5859-2.5078,4.074,4.074,0,0,1,1.8574.41,3.1151,3.1151,0,0,1,1.2481,1.0782,4.3025,4.3025,0,0,1,.5918,1.3183,10.3581,10.3581,0,0,1,.1582,2.1739Z"/>
      <path class="f8f2e1cd-604e-495a-9364-29e2a52aeeda" d="M287.1423,664.5625l1.7109.3516a4.8161,4.8161,0,0,1-1.8281,2.5107,5.2767,5.2767,0,0,1-3.1993.9932,4.9767,4.9767,0,0,1-3.9257-1.7061,7.4508,7.4508,0,0,1,.0586-9.0439,5.0308,5.0308,0,0,1,3.914-1.7422,4.7279,4.7279,0,0,1,3.7324,1.6055,7.2182,7.2182,0,0,1,1.4473,4.8046h-8.6016q0,2.6836,1.125,3.6211a3.664,3.664,0,0,0,2.379.9375A3.2506,3.2506,0,0,0,287.1423,664.5625Zm-.1055-3.5977a5.1353,5.1353,0,0,0-.3281-1.7695,3.0185,3.0185,0,0,0-1.0313-1.3183,2.8272,2.8272,0,0,0-1.7461-.545,3.1191,3.1191,0,0,0-2.3262.9844,4.0742,4.0742,0,0,0-1.0722,2.6484Z"/>
      <path class="f8f2e1cd-604e-495a-9364-29e2a52aeeda" d="M293.6579,668.09h-1.84v-15.996h1.84Z"/>
      <path class="f8f2e1cd-604e-495a-9364-29e2a52aeeda" d="M299.1774,668.09h-1.84v-15.996h1.84Z"/>
      <path class="f8f2e1cd-604e-495a-9364-29e2a52aeeda" d="M322.4977,656.2539,319.0905,668.09h-1.4912l-2.6426-8.789-2.4258,8.789h-1.5117l-3.5566-11.8359h1.8457l2.5781,8.8242,2.46-8.8242h1.3447l2.664,8.8594,2.66-8.8594Z"/>
      <path class="f8f2e1cd-604e-495a-9364-29e2a52aeeda" d="M332.2946,664.5625l1.7109.3516a4.8156,4.8156,0,0,1-1.8281,2.5107,5.2762,5.2762,0,0,1-3.1992.9932,4.9768,4.9768,0,0,1-3.9258-1.7061,7.4508,7.4508,0,0,1,.0586-9.0439,5.0312,5.0312,0,0,1,3.9141-1.7422,4.728,4.728,0,0,1,3.7324,1.6055,7.2188,7.2188,0,0,1,1.4473,4.8046h-8.6016q0,2.6836,1.125,3.6211a3.664,3.664,0,0,0,2.3789.9375A3.2506,3.2506,0,0,0,332.2946,664.5625Zm-.1055-3.5977a5.1353,5.1353,0,0,0-.3281-1.7695,3.0182,3.0182,0,0,0-1.0312-1.3183,2.8274,2.8274,0,0,0-1.7461-.545,3.1188,3.1188,0,0,0-2.3262.9844,4.0743,4.0743,0,0,0-1.0723,2.6484Z"/>
      <path class="f8f2e1cd-604e-495a-9364-29e2a52aeeda" d="M344.7868,664.5625l1.7109.3516a4.8161,4.8161,0,0,1-1.8281,2.5107,5.2766,5.2766,0,0,1-3.1992.9932,4.9768,4.9768,0,0,1-3.9258-1.7061,7.4508,7.4508,0,0,1,.0586-9.0439,5.031,5.031,0,0,1,3.9141-1.7422,4.728,4.728,0,0,1,3.7324,1.6055,7.2182,7.2182,0,0,1,1.4472,4.8046h-8.6015q0,2.6836,1.125,3.6211a3.6638,3.6638,0,0,0,2.3789.9375A3.2506,3.2506,0,0,0,344.7868,664.5625Zm-.1055-3.5977a5.1353,5.1353,0,0,0-.3281-1.7695,3.0177,3.0177,0,0,0-1.0313-1.3183,2.8269,2.8269,0,0,0-1.7461-.545,3.1187,3.1187,0,0,0-2.3261.9844,4.0743,4.0743,0,0,0-1.0723,2.6484Z"/>
      <path class="f8f2e1cd-604e-495a-9364-29e2a52aeeda" d="M359.236,668.09h-1.9072l-3.459-6.6084-2.5674,2.9522V668.09h-1.84v-15.996h1.84v10.2539l5.4981-6.0938h1.9668L355.07,660.41Z"/>
    </g>
    <circle class="a24297fc-8c34-4ab2-86bf-200bea3434ed" cx="89.447" cy="713" r="15.3333"/>
    <g>
      <path class="f8f2e1cd-604e-495a-9364-29e2a52aeeda" d="M126.56,720h-1.9453l-8.2734-13.9443.0234,1.0547q.0351.5976.0352,1.0078V720h-1.6172V704.0039h2.5078l7.7344,13.0361-.0235-1.1132q-.0234-.6549-.0234-1.1592V704.0039h1.582Z"/>
      <path class="f8f2e1cd-604e-495a-9364-29e2a52aeeda" d="M134.6344,720.3281a4.4959,4.4959,0,0,1-3.8027-1.8056,7.2209,7.2209,0,0,1-1.3652-4.4815,6.456,6.456,0,0,1,1.5351-4.5156,4.9522,4.9522,0,0,1,3.82-1.6895,4.6657,4.6657,0,0,1,3.8614,1.7774,6.913,6.913,0,0,1,1.4121,4.4394,6.647,6.647,0,0,1-1.5235,4.5225A4.9741,4.9741,0,0,1,134.6344,720.3281Zm.1407-1.5234a2.928,2.928,0,0,0,2.3554-1.16,5.65,5.65,0,0,0,.9493-3.6093,5.2567,5.2567,0,0,0-.9961-3.5684,3.048,3.048,0,0,0-2.3321-1.1074,2.9332,2.9332,0,0,0-2.32,1.1191,5.4261,5.4261,0,0,0-.9492,3.5449,5.6406,5.6406,0,0,0,.9492,3.6739A2.9685,2.9685,0,0,0,134.7751,718.8047Z"/>
    </g>
  </g>
</svg>
