<svg id="f4af626a-8ed3-4ca6-917e-684365e228e4" data-name="Layer 1" xmlns="http://www.w3.org/2000/svg" width="612" height="792" viewBox="0 0 612 792">
  <defs>
    <style>
      .a261114c-ce70-426e-a1ed-0af8a82b5c14, .ea552616-fb92-4118-92a9-dd4a7064380b {
        fill: #b2a268;
      }

      .a2365e4e-8854-460d-bbd9-87f41a148851, .e7d77505-159f-44b6-80b3-6281bddc99e3, .ea552616-fb92-4118-92a9-dd4a7064380b {
        stroke: #f1f2f2;
      }

      .a2365e4e-8854-460d-bbd9-87f41a148851, .a261114c-ce70-426e-a1ed-0af8a82b5c14, .ad35fda4-e0d7-4358-9bf9-3da79bfda8c5, .e7d77505-159f-44b6-80b3-6281bddc99e3, .ea552616-fb92-4118-92a9-dd4a7064380b, .f1610ba6-3d2b-4f1b-800b-ffba6afbcce0 {
        stroke-miterlimit: 10;
        stroke-width: 4px;
      }

      .ad35fda4-e0d7-4358-9bf9-3da79bfda8c5, .b7777232-9864-4fda-9b02-a9ee903f26ed, .e7d77505-159f-44b6-80b3-6281bddc99e3 {
        fill: #e5e5e5;
      }

      .a2365e4e-8854-460d-bbd9-87f41a148851, .b46bbe1a-fa9f-4b97-b045-76e0ab7218e7, .f1610ba6-3d2b-4f1b-800b-ffba6afbcce0 {
        fill: #143156;
      }

      .ad35fda4-e0d7-4358-9bf9-3da79bfda8c5 {
        stroke: #e5e5e5;
      }

      .bb5e5ff4-fd70-4e33-b657-e710b0fd21c5 {
        fill: #231f20;
      }

      .f1610ba6-3d2b-4f1b-800b-ffba6afbcce0 {
        stroke: #143156;
      }

      .a261114c-ce70-426e-a1ed-0af8a82b5c14 {
        stroke: #b2a268;
      }
    </style>
  </defs>
  <path class="ea552616-fb92-4118-92a9-dd4a7064380b" d="M570.2494,259.7879c1.4674,16.4741.5829,32.9865.7738,49.481.0323,2.7978-.3,5.6-.4633,8.3981-5.5758,50-23.8222,94.9081-55.1147,134.2368C478.68,498.11,431.42,528.5606,374.0539,542.5971c-110.7039,27.0873-224.8063-19.88-284.24-116.855A254.9668,254.9668,0,0,1,53.0974,315.0514,258.4859,258.4859,0,0,1,68.4412,198.857c2.4448-.4449,4.58.6593,6.7291,1.4693,31.5233,11.8829,62.9979,23.8962,94.5691,35.65,6.79,2.528,13.2533,6.1593,20.6521,6.9071-7.1335,19.5165-10.105,39.6352-7.9246,60.3206,7.0351,66.7418,62.26,117.4959,130.6345,117.0442,34.407-.2273,64.4106-12.7261,89.2036-36.5518,46.3976-44.5874,52.7591-116.5829,15.4776-169.1306-8.7564-12.3419-19.5541-22.5479-31.7157-31.4132q9.9794-14.5575,19.9638-29.1115c12.5208-18.152,25.2439-36.1676,37.5277-54.4783,5.2434-7.816,11.3223-15.1,15.5453-23.5921,13.9935,8.5129,26.1211,19.3445,37.5184,30.9523,39.1139,39.8363,62.8894,87.5266,72.2251,142.4937C569.431,252.8541,569.7872,256.33,570.2494,259.7879Z"/>
  <path class="e7d77505-159f-44b6-80b3-6281bddc99e3" d="M190.3914,242.8839c-7.3987-.7482-13.8618-4.38-20.652-6.9075-31.5712-11.7539-63.0458-23.7672-94.5691-35.65-2.1488-.81-4.2843-1.9142-6.7291-1.4693,8.8244-25.1813,21.9674-47.9884,38.3678-68.9188,32.0715-40.93,72.907-69.6716,122.0874-86.3306,26.602-9.011,54.0056-13.9779,82.2307-13.5359q.0129,64.8636.0257,129.7273c-3.8076.3163-7.6218.5683-11.4217.9591-38.2888,3.938-68.9887,21.419-92.4057,51.8661C200.2045,221.8828,195.2387,232.3509,190.3914,242.8839Z"/>
  <path class="a2365e4e-8854-460d-bbd9-87f41a148851" d="M459.1037,75.9708c-4.223,8.4917-10.3019,15.7761-15.5453,23.5921-12.2838,18.3107-25.0069,36.3263-37.5277,54.4783Q396.0094,168.57,386.067,183.1528c-5.2942-3.072-10.4588-6.4-15.9067-9.17-18.1894-9.2481-37.7091-13.2458-57.9593-14.1579l.0608-129.79C365.8725,30.4351,414.9366,45.3734,459.1037,75.9708Z"/>
  <circle class="ad35fda4-e0d7-4358-9bf9-3da79bfda8c5" cx="83.7746" cy="600.3333" r="15.3333"/>
  <g>
    <path class="bb5e5ff4-fd70-4e33-b657-e710b0fd21c5" d="M111.1152,604.333h-2.0039V588.3369h2.0039Z"/>
    <path class="bb5e5ff4-fd70-4e33-b657-e710b0fd21c5" d="M130.8022,604.333h-1.7929v-7.3594a6.83,6.83,0,0,0-.1582-1.705,2.0452,2.0452,0,0,0-.7671-1.043,2.1746,2.1746,0,0,0-1.3711-.4746,2.8954,2.8954,0,0,0-2.0332.9668,3.98,3.98,0,0,0-.9785,2.9472v6.668H121.92V596.54a2.79,2.79,0,0,0-.7441-2.2031,2.3629,2.3629,0,0,0-1.5645-.6445,2.6172,2.6172,0,0,0-2.039,1.0078,3.7772,3.7772,0,0,0-.8672,2.5547v7.0781h-1.7578V592.4971h1.582v2.2734q1.3242-2.6016,3.6445-2.6016a3.06,3.06,0,0,1,2.168.8321,3.8041,3.8041,0,0,1,1.1484,2.0039q1.2188-2.8359,3.7383-2.836a3.3929,3.3929,0,0,1,2.1148.6915,3.1837,3.1837,0,0,1,1.1836,1.5878,9.0143,9.0143,0,0,1,.2753,2.5254Z"/>
    <path class="bb5e5ff4-fd70-4e33-b657-e710b0fd21c5" d="M136.1108,608.3291h-1.84v-15.832h1.6641v2.2968a4.04,4.04,0,0,1,7.1152-.871,8.4729,8.4729,0,0,1-.0371,9.038,4.1205,4.1205,0,0,1-3.3985,1.7,3.9219,3.9219,0,0,1-3.5039-2.1211Zm0-11.625v3.34a3.5212,3.5212,0,0,0,1.1368,2.2188,2.9593,2.9593,0,0,0,2.0039.875,2.7911,2.7911,0,0,0,2.1386-1.0547,5.5307,5.5307,0,0,0,.9317-3.6445,5.9983,5.9983,0,0,0-.8438-3.4512,2.6041,2.6041,0,0,0-2.2383-1.2129,2.7513,2.7513,0,0,0-1.9746.8555A4.1477,4.1477,0,0,0,136.1108,596.7041Z"/>
    <path class="bb5e5ff4-fd70-4e33-b657-e710b0fd21c5" d="M151.3335,604.6611a4.4958,4.4958,0,0,1-3.8027-1.8056,7.2209,7.2209,0,0,1-1.3653-4.4815,6.4555,6.4555,0,0,1,1.5352-4.5156,4.952,4.952,0,0,1,3.82-1.6895,4.6657,4.6657,0,0,1,3.8613,1.7774,6.913,6.913,0,0,1,1.4121,4.4394,6.6474,6.6474,0,0,1-1.5234,4.5225A4.9741,4.9741,0,0,1,151.3335,604.6611Zm.1406-1.5234a2.9282,2.9282,0,0,0,2.3555-1.16,5.65,5.65,0,0,0,.9492-3.6093,5.2562,5.2562,0,0,0-.9961-3.5684,3.0478,3.0478,0,0,0-2.332-1.1074,2.933,2.933,0,0,0-2.32,1.1191,5.4261,5.4261,0,0,0-.9492,3.5449,5.6406,5.6406,0,0,0,.9492,3.6739A2.968,2.968,0,0,0,151.4741,603.1377Z"/>
    <path class="bb5e5ff4-fd70-4e33-b657-e710b0fd21c5" d="M161.4,604.333h-1.84V592.4971h1.6171v2.7656a5.9389,5.9389,0,0,1,1.7168-2.5371,3.1235,3.1235,0,0,1,1.7637-.58,7.2147,7.2147,0,0,1,.7266.0469V593.95h-.375a3.24,3.24,0,0,0-2.5313,1.1367,4.6155,4.6155,0,0,0-1.0781,2.9883Z"/>
    <path class="bb5e5ff4-fd70-4e33-b657-e710b0fd21c5" d="M173.6343,603.0791v1.4531a13.0738,13.0738,0,0,1-1.6875.1289q-3.4336,0-3.4336-3.59v-7.1328h-2.0977v-1.4414h2.0977l.082-2.9766,1.711-.1641v3.1407h2.6484v1.4414h-2.6484v7.4394q0,1.83,1.8984,1.83A9.0509,9.0509,0,0,0,173.6343,603.0791Z"/>
    <path class="bb5e5ff4-fd70-4e33-b657-e710b0fd21c5" d="M184.9077,604.333h-1.8164q-.1055-.5625-.2109-2.1328a4.2634,4.2634,0,0,1-4.1485,2.4609,4.1632,4.1632,0,0,1-3.0586-1.0556,3.4437,3.4437,0,0,1-1.0664-2.5352,3.5541,3.5541,0,0,1,1.5235-2.9521q1.5234-1.1558,5.18-1.1563.4922,0,1.57.0469a6.8142,6.8142,0,0,0-.2168-2.0332,1.8119,1.8119,0,0,0-.92-1.002,3.9363,3.9363,0,0,0-1.8516-.375q-2.8008,0-3.2578,2.1328l-1.6992-.2929q.621-3.27,5.2265-3.27a4.6384,4.6384,0,0,1,3.4746,1.084,5.4289,5.4289,0,0,1,1.0254,3.7559v5.0273A10.0077,10.0077,0,0,0,184.9077,604.333Zm-2.0273-5.918q-1.125-.07-1.711-.07a6.6683,6.6683,0,0,0-3.3867.7168,2.2924,2.2924,0,0,0-1.207,2.0908,1.9557,1.9557,0,0,0,.65,1.4805,2.6471,2.6471,0,0,0,1.8808.61,3.4938,3.4938,0,0,0,2.7364-1.21,4.1484,4.1484,0,0,0,1.0722-2.8428Q182.9155,598.8624,182.88,598.415Z"/>
    <path class="bb5e5ff4-fd70-4e33-b657-e710b0fd21c5" d="M197.6694,604.333h-1.7226v-7.6055a3.0692,3.0692,0,0,0-.7149-2.3086,2.4479,2.4479,0,0,0-1.7343-.6679,2.9786,2.9786,0,0,0-2.3614,1.125,4.4253,4.4253,0,0,0-.955,2.9648v6.4922h-1.84V592.4971h1.7109v2.18a4.26,4.26,0,0,1,3.7383-2.5079,3.7012,3.7012,0,0,1,2.2559.6856,3.6364,3.6364,0,0,1,1.2773,1.541,9.3656,9.3656,0,0,1,.3457,3.0938Z"/>
    <path class="bb5e5ff4-fd70-4e33-b657-e710b0fd21c5" d="M206.7163,603.0791v1.4531a13.0713,13.0713,0,0,1-1.6875.1289q-3.4336,0-3.4336-3.59v-7.1328h-2.0976v-1.4414h2.0976l.082-2.9766,1.711-.1641v3.1407h2.6484v1.4414h-2.6484v7.4394q0,1.83,1.8984,1.83A9.05,9.05,0,0,0,206.7163,603.0791Z"/>
    <path class="bb5e5ff4-fd70-4e33-b657-e710b0fd21c5" d="M215.6226,604.333h-.8907V588.3369h1.84v6.1289a3.8667,3.8667,0,0,1,3.4922-2.2969,4.322,4.322,0,0,1,3.416,1.6075,6.9851,6.9851,0,0,1,1.3769,4.6679,7.1274,7.1274,0,0,1-1.3535,4.4287,4.217,4.217,0,0,1-3.5215,1.7881,4.0486,4.0486,0,0,1-3.7031-2.2851Zm.9492-4.6406a3.5988,3.5988,0,0,0,1.1211,2.6455,3.2364,3.2364,0,0,0,2.0957.8232,2.6584,2.6584,0,0,0,2.2715-1.22,5.7055,5.7055,0,0,0,.8632-3.3447,6.656,6.656,0,0,0-.8339-3.5957,2.6051,2.6051,0,0,0-2.3125-1.3086,2.8983,2.8983,0,0,0-2.0957.9316,3.9486,3.9486,0,0,0-1.1094,2.4082Z"/>
    <path class="bb5e5ff4-fd70-4e33-b657-e710b0fd21c5" d="M236.939,604.333h-1.6641v-2.2617a4.032,4.032,0,0,1-3.7676,2.59,3.57,3.57,0,0,1-2.85-1.1963,5.0421,5.0421,0,0,1-1.0351-3.4013v-7.5664h1.84v7.5586a3.1867,3.1867,0,0,0,.7324,2.42,2.3525,2.3525,0,0,0,1.6114.6621,2.7474,2.7474,0,0,0,1.6113-.5039,3.87,3.87,0,0,0,1.2012-1.4356,4.37,4.37,0,0,0,.48-2.0332v-6.6679h1.84Z"/>
    <path class="bb5e5ff4-fd70-4e33-b657-e710b0fd21c5" d="M245.9858,603.0791v1.4531a13.0713,13.0713,0,0,1-1.6875.1289q-3.4335,0-3.4336-3.59v-7.1328h-2.0976v-1.4414h2.0976l.0821-2.9766,1.7109-.1641v3.1407h2.6485v1.4414h-2.6485v7.4394q0,1.83,1.8985,1.83A9.05,9.05,0,0,0,245.9858,603.0791Z"/>
    <path class="bb5e5ff4-fd70-4e33-b657-e710b0fd21c5" d="M263.33,604.333h-1.7227v-7.6055a3.0692,3.0692,0,0,0-.7148-2.3086,2.4481,2.4481,0,0,0-1.7344-.6679,2.9784,2.9784,0,0,0-2.3613,1.125,4.4253,4.4253,0,0,0-.9551,2.9648v6.4922h-1.84V592.4971h1.7109v2.18a4.2594,4.2594,0,0,1,3.7383-2.5079,3.7009,3.7009,0,0,1,2.2558.6856,3.6374,3.6374,0,0,1,1.2774,1.541,9.3656,9.3656,0,0,1,.3457,3.0938Z"/>
    <path class="bb5e5ff4-fd70-4e33-b657-e710b0fd21c5" d="M271.2515,604.6611a4.4961,4.4961,0,0,1-3.8028-1.8056,7.2215,7.2215,0,0,1-1.3652-4.4815,6.4555,6.4555,0,0,1,1.5352-4.5156,4.9519,4.9519,0,0,1,3.82-1.6895,4.6657,4.6657,0,0,1,3.8613,1.7774,6.913,6.913,0,0,1,1.4121,4.4394,6.6474,6.6474,0,0,1-1.5234,4.5225A4.9744,4.9744,0,0,1,271.2515,604.6611Zm.1406-1.5234a2.9283,2.9283,0,0,0,2.3555-1.16,5.65,5.65,0,0,0,.9492-3.6093,5.2567,5.2567,0,0,0-.9961-3.5684,3.0479,3.0479,0,0,0-2.332-1.1074,2.9334,2.9334,0,0,0-2.32,1.1191,5.4261,5.4261,0,0,0-.9492,3.5449,5.6406,5.6406,0,0,0,.9492,3.6739A2.9683,2.9683,0,0,0,271.3921,603.1377Z"/>
    <path class="bb5e5ff4-fd70-4e33-b657-e710b0fd21c5" d="M284.6577,603.0791v1.4531a13.0713,13.0713,0,0,1-1.6875.1289q-3.4335,0-3.4336-3.59v-7.1328H277.439v-1.4414h2.0976l.0821-2.9766,1.7109-.1641v3.1407h2.6484v1.4414H281.33v7.4394q0,1.83,1.8984,1.83A9.05,9.05,0,0,0,284.6577,603.0791Z"/>
    <path class="bb5e5ff4-fd70-4e33-b657-e710b0fd21c5" d="M301.9312,604.333h-1.8165q-.1055-.5625-.2109-2.1328a4.2633,4.2633,0,0,1-4.1484,2.4609,4.1629,4.1629,0,0,1-3.0586-1.0556A3.4433,3.4433,0,0,1,291.63,601.07a3.5543,3.5543,0,0,1,1.5234-2.9521q1.5234-1.1558,5.18-1.1563.4921,0,1.57.0469a6.8142,6.8142,0,0,0-.2168-2.0332,1.8115,1.8115,0,0,0-.92-1.002,3.936,3.936,0,0,0-1.8516-.375q-2.8008,0-3.2578,2.1328l-1.6992-.2929q.6211-3.27,5.2266-3.27a4.6384,4.6384,0,0,1,3.4746,1.084,5.4289,5.4289,0,0,1,1.0254,3.7559v5.0273A10.0021,10.0021,0,0,0,301.9312,604.333Zm-2.0274-5.918q-1.125-.07-1.7109-.07a6.6678,6.6678,0,0,0-3.3867.7168,2.2925,2.2925,0,0,0-1.2071,2.0908,1.9557,1.9557,0,0,0,.65,1.4805,2.6474,2.6474,0,0,0,1.8809.61,3.4936,3.4936,0,0,0,2.7363-1.21,4.1484,4.1484,0,0,0,1.0723-2.8428Q299.939,598.8624,299.9038,598.415Z"/>
    <path class="bb5e5ff4-fd70-4e33-b657-e710b0fd21c5" d="M316.7324,603.0791v1.4531a13.0713,13.0713,0,0,1-1.6875.1289q-3.4335,0-3.4336-3.59v-7.1328h-2.0976v-1.4414h2.0976l.0821-2.9766,1.7109-.1641v3.1407h2.6484v1.4414h-2.6484v7.4394q0,1.83,1.8984,1.83A9.05,9.05,0,0,0,316.7324,603.0791Z"/>
    <path class="bb5e5ff4-fd70-4e33-b657-e710b0fd21c5" d="M322.627,604.6611a4.4961,4.4961,0,0,1-3.8028-1.8056,7.2215,7.2215,0,0,1-1.3652-4.4815,6.456,6.456,0,0,1,1.5351-4.5156,4.9522,4.9522,0,0,1,3.82-1.6895,4.6657,4.6657,0,0,1,3.8613,1.7774,6.913,6.913,0,0,1,1.4121,4.4394,6.6474,6.6474,0,0,1-1.5234,4.5225A4.9744,4.9744,0,0,1,322.627,604.6611Zm.1406-1.5234a2.928,2.928,0,0,0,2.3554-1.16,5.649,5.649,0,0,0,.9493-3.6093,5.2567,5.2567,0,0,0-.9961-3.5684,3.048,3.048,0,0,0-2.3321-1.1074,2.9332,2.9332,0,0,0-2.32,1.1191,5.4261,5.4261,0,0,0-.9492,3.5449,5.6406,5.6406,0,0,0,.9492,3.6739A2.9682,2.9682,0,0,0,322.7676,603.1377Z"/>
    <path class="bb5e5ff4-fd70-4e33-b657-e710b0fd21c5" d="M332.6934,608.3291h-1.84v-15.832h1.6641v2.2968a4.04,4.04,0,0,1,7.1152-.871,8.4729,8.4729,0,0,1-.0371,9.038,4.12,4.12,0,0,1-3.3984,1.7,3.9217,3.9217,0,0,1-3.5039-2.1211Zm0-11.625v3.34a3.521,3.521,0,0,0,1.1367,2.2188,2.9593,2.9593,0,0,0,2.0039.875,2.7913,2.7913,0,0,0,2.1387-1.0547,5.5308,5.5308,0,0,0,.9316-3.6445,5.9983,5.9983,0,0,0-.8438-3.4512,2.6039,2.6039,0,0,0-2.2382-1.2129,2.751,2.751,0,0,0-1.9746.8555A4.1469,4.1469,0,0,0,332.6934,596.7041Z"/>
    <path class="bb5e5ff4-fd70-4e33-b657-e710b0fd21c5" d="M115.9434,628.9844l1.664.2929a5.2984,5.2984,0,0,1-1.5586,3.0733,4.7083,4.7083,0,0,1-6.7441-.6953,7.4221,7.4221,0,0,1-1.2832-4.4112,7.2243,7.2243,0,0,1,1.3535-4.4863,4.375,4.375,0,0,1,3.6855-1.789,4.2135,4.2135,0,0,1,3.1,1.1542,5.1717,5.1717,0,0,1,1.4472,2.9825l-1.664.3164q-.4682-2.93-2.8306-2.93a2.61,2.61,0,0,0-2.3389,1.2949,6.1942,6.1942,0,0,0-.8188,3.3574,6.4966,6.4966,0,0,0,.813,3.5332,2.5733,2.5733,0,0,0,2.2866,1.26Q115.3355,631.9375,115.9434,628.9844Z"/>
    <path class="bb5e5ff4-fd70-4e33-b657-e710b0fd21c5" d="M124.3691,633.4609a4.4959,4.4959,0,0,1-3.8027-1.8056,7.2215,7.2215,0,0,1-1.3652-4.4815,6.456,6.456,0,0,1,1.5351-4.5156,4.9521,4.9521,0,0,1,3.82-1.6894,4.6656,4.6656,0,0,1,3.8614,1.7773,6.9156,6.9156,0,0,1,1.4116,4.4394,6.649,6.649,0,0,1-1.523,4.5225A4.9738,4.9738,0,0,1,124.3691,633.4609Zm.1407-1.5234a2.928,2.928,0,0,0,2.3554-1.16,5.65,5.65,0,0,0,.9493-3.6093,5.2567,5.2567,0,0,0-.9961-3.5684,3.048,3.048,0,0,0-2.3321-1.1074,2.9332,2.9332,0,0,0-2.32,1.1191,5.4262,5.4262,0,0,0-.9492,3.545,5.64,5.64,0,0,0,.9492,3.6738A2.9682,2.9682,0,0,0,124.51,631.9375Z"/>
    <path class="bb5e5ff4-fd70-4e33-b657-e710b0fd21c5" d="M141.9233,633.1328h-1.7226v-7.6055a3.0688,3.0688,0,0,0-.7149-2.3085,2.4474,2.4474,0,0,0-1.7343-.668,2.9787,2.9787,0,0,0-2.3614,1.125,4.4253,4.4253,0,0,0-.955,2.9648v6.4922h-1.84V621.2969h1.711v2.18a4.2592,4.2592,0,0,1,3.7382-2.5078,3.7011,3.7011,0,0,1,2.2559.6855,3.6364,3.6364,0,0,1,1.2773,1.541,9.3656,9.3656,0,0,1,.3457,3.0938Z"/>
    <path class="bb5e5ff4-fd70-4e33-b657-e710b0fd21c5" d="M152.5991,628.9844l1.6641.2929a5.2984,5.2984,0,0,1-1.5586,3.0733,4.7085,4.7085,0,0,1-6.7442-.6953,7.4228,7.4228,0,0,1-1.2832-4.4112,7.2237,7.2237,0,0,1,1.3536-4.4863,4.3749,4.3749,0,0,1,3.6855-1.789,4.2131,4.2131,0,0,1,3.1,1.1542,5.1712,5.1712,0,0,1,1.4473,2.9825l-1.6641.3164q-.4687-2.93-2.83-2.93a2.612,2.612,0,0,0-2.34,1.2949,6.1942,6.1942,0,0,0-.8184,3.3574,6.4968,6.4968,0,0,0,.8125,3.5332,2.5746,2.5746,0,0,0,2.2871,1.26Q151.9913,631.9375,152.5991,628.9844Z"/>
    <path class="bb5e5ff4-fd70-4e33-b657-e710b0fd21c5" d="M164.5991,629.6055l1.711.3515a4.8156,4.8156,0,0,1-1.8282,2.5108,5.2761,5.2761,0,0,1-3.1992.9931,4.9767,4.9767,0,0,1-3.9258-1.706,7.451,7.451,0,0,1,.0586-9.044,5.0314,5.0314,0,0,1,3.9141-1.7421,4.7281,4.7281,0,0,1,3.7324,1.6054,7.2191,7.2191,0,0,1,1.4473,4.8047h-8.6016q0,2.6836,1.125,3.6211a3.664,3.664,0,0,0,2.3789.9375A3.2506,3.2506,0,0,0,164.5991,629.6055Zm-.1054-3.5977a5.1353,5.1353,0,0,0-.3282-1.7695,3.0183,3.0183,0,0,0-1.0312-1.3184,2.8271,2.8271,0,0,0-1.7461-.5449,3.1184,3.1184,0,0,0-2.3262.9844,4.0744,4.0744,0,0,0-1.0723,2.6484Z"/>
    <path class="bb5e5ff4-fd70-4e33-b657-e710b0fd21c5" d="M171.1147,633.1328h-1.84V621.2969h1.6172v2.7656a5.938,5.938,0,0,1,1.7168-2.5371,3.123,3.123,0,0,1,1.7637-.58,7.213,7.213,0,0,1,.7265.0469V622.75h-.375a3.24,3.24,0,0,0-2.5312,1.1367,4.615,4.615,0,0,0-1.0782,2.9883Z"/>
    <path class="bb5e5ff4-fd70-4e33-b657-e710b0fd21c5" d="M186.5132,633.1328h-1.7227v-7.6055a3.0692,3.0692,0,0,0-.7148-2.3085,2.4478,2.4478,0,0,0-1.7344-.668,2.9784,2.9784,0,0,0-2.3613,1.125,4.4253,4.4253,0,0,0-.9551,2.9648v6.4922h-1.84V621.2969h1.7109v2.18a4.2592,4.2592,0,0,1,3.7383-2.5078,3.7008,3.7008,0,0,1,2.2558.6855,3.6374,3.6374,0,0,1,1.2774,1.541,9.3683,9.3683,0,0,1,.3457,3.0938Z"/>
    <path class="bb5e5ff4-fd70-4e33-b657-e710b0fd21c5" d="M198.0913,617.1367v2.0508h-1.98v-2.0508Zm-.0586,4.16v11.8359h-1.84V621.2969Z"/>
    <path class="bb5e5ff4-fd70-4e33-b657-e710b0fd21c5" d="M211.0288,633.1328h-1.7226v-7.6055a3.0688,3.0688,0,0,0-.7149-2.3085,2.4478,2.4478,0,0,0-1.7344-.668,2.9784,2.9784,0,0,0-2.3613,1.125,4.4253,4.4253,0,0,0-.9551,2.9648v6.4922h-1.84V621.2969h1.7109v2.18a4.26,4.26,0,0,1,3.7383-2.5078,3.7011,3.7011,0,0,1,2.2559.6855,3.6371,3.6371,0,0,1,1.2773,1.541,9.3656,9.3656,0,0,1,.3457,3.0938Z"/>
    <path class="bb5e5ff4-fd70-4e33-b657-e710b0fd21c5" d="M236.564,633.1328h-1.793v-7.3594a6.8251,6.8251,0,0,0-.1582-1.705,2.0434,2.0434,0,0,0-.7676-1.043,2.1744,2.1744,0,0,0-1.3711-.4746,2.8956,2.8956,0,0,0-2.0332.9668,3.98,3.98,0,0,0-.9785,2.9472v6.668h-1.7812V625.34a2.79,2.79,0,0,0-.7442-2.2031,2.3628,2.3628,0,0,0-1.5644-.6445,2.6173,2.6173,0,0,0-2.0391,1.0078,3.7777,3.7777,0,0,0-.8672,2.5547v7.0781h-1.7578V621.2969h1.582V623.57q1.3242-2.6016,3.6446-2.6015a3.0592,3.0592,0,0,1,2.1679.832,3.8042,3.8042,0,0,1,1.1485,2.0039q1.2188-2.8359,3.7382-2.8359a3.3942,3.3942,0,0,1,2.1153.6914,3.1837,3.1837,0,0,1,1.1836,1.5878,9.01,9.01,0,0,1,.2754,2.5254Z"/>
    <path class="bb5e5ff4-fd70-4e33-b657-e710b0fd21c5" d="M247.9106,621.2969l-4.7451,13.2207q-1.0312,2.8579-3.2959,2.8574a5.8452,5.8452,0,0,1-1.583-.2461v-1.4414a5.6253,5.6253,0,0,0,1.2305.1641,2.1889,2.1889,0,0,0,1.47-.5039,5.6426,5.6426,0,0,0,1.1807-2.4561l-4.0947-11.5947h1.8691l3.1787,8.8945,3.2363-8.8945Z"/>
    <path class="bb5e5ff4-fd70-4e33-b657-e710b0fd21c5" d="M257.5874,633.1328h-1.84V617.1367h1.84Z"/>
    <path class="bb5e5ff4-fd70-4e33-b657-e710b0fd21c5" d="M263.1655,617.1367v2.0508h-1.98v-2.0508Zm-.0586,4.16v11.8359h-1.84V621.2969Z"/>
    <path class="bb5e5ff4-fd70-4e33-b657-e710b0fd21c5" d="M271.6851,621.2969v1.4414h-2.8125v10.3945h-1.84V622.7383h-2.0156v-1.4414h2.0156q.047-2.8478,1.0957-3.668a4.0293,4.0293,0,0,1,2.5606-.82,10.03,10.03,0,0,1,1.6875.1641v1.4648a4.6038,4.6038,0,0,0-1.1368-.1523,2.572,2.572,0,0,0-1.7871.5332,2.6757,2.6757,0,0,0-.58,1.998v.4805Z"/>
    <path class="bb5e5ff4-fd70-4e33-b657-e710b0fd21c5" d="M281.189,629.6055l1.7109.3515a4.8159,4.8159,0,0,1-1.8281,2.5108,5.2765,5.2765,0,0,1-3.1992.9931,4.9767,4.9767,0,0,1-3.9258-1.706,7.451,7.451,0,0,1,.0586-9.044,5.0311,5.0311,0,0,1,3.914-1.7421,4.7285,4.7285,0,0,1,3.7325,1.6054,7.2185,7.2185,0,0,1,1.4472,4.8047h-8.6015q0,2.6836,1.125,3.6211a3.6638,3.6638,0,0,0,2.3789.9375A3.2506,3.2506,0,0,0,281.189,629.6055Zm-.1055-3.5977a5.1353,5.1353,0,0,0-.3281-1.7695,3.0193,3.0193,0,0,0-1.0313-1.3184,2.8271,2.8271,0,0,0-1.7461-.5449,3.1184,3.1184,0,0,0-2.3261.9844,4.0734,4.0734,0,0,0-1.0723,2.6484Z"/>
    <path class="bb5e5ff4-fd70-4e33-b657-e710b0fd21c5" d="M293.7046,633.1328h-1.84V621.2969h1.6172v2.7656a5.938,5.938,0,0,1,1.7168-2.5371,3.123,3.123,0,0,1,1.7637-.58,7.2147,7.2147,0,0,1,.7266.0469V622.75h-.375a3.24,3.24,0,0,0-2.5313,1.1367,4.615,4.615,0,0,0-1.0781,2.9883Z"/>
    <path class="bb5e5ff4-fd70-4e33-b657-e710b0fd21c5" d="M301.6733,617.1367v2.0508h-1.98v-2.0508Zm-.0586,4.16v11.8359h-1.84V621.2969Z"/>
    <path class="bb5e5ff4-fd70-4e33-b657-e710b0fd21c5" d="M314.9512,619.4453V620.91a3.3078,3.3078,0,0,0-1.6934.2929,1.5514,1.5514,0,0,0-.5683,1.0547,4.2809,4.2809,0,0,1,1.1367,2.8594,3.6767,3.6767,0,0,1-1.2364,2.7773,4.6585,4.6585,0,0,1-3.3222,1.16,4.0408,4.0408,0,0,1-.8086-.07,5.8934,5.8934,0,0,0-.8086-.1289,1.4207,1.4207,0,0,0-.7622.3105.9412.9412,0,0,0-.4453.8028.8728.8728,0,0,0,.645.914,13.9886,13.9886,0,0,0,3.0351.2695,17.2577,17.2577,0,0,1,2.9942.2754,3.0434,3.0434,0,0,1,1.6348.961,2.63,2.63,0,0,1,.6679,1.8222q0,3.3868-5.9531,3.3868a7.7,7.7,0,0,1-4.12-.8506,2.6,2.6,0,0,1-1.295-2.27,2.3827,2.3827,0,0,1,1.8047-2.37,2.2353,2.2353,0,0,1-1.16-1.9092,2.2946,2.2946,0,0,1,1.6406-2.0966,3.8579,3.8579,0,0,1-1.5352-3.127,3.6217,3.6217,0,0,1,1.3125-2.8808,4.7489,4.7489,0,0,1,3.2-1.125,5.71,5.71,0,0,1,2.4257.5039,2.2645,2.2645,0,0,1,.8145-1.6055,3.4122,3.4122,0,0,1,1.9394-.4453Q314.6231,619.4219,314.9512,619.4453Zm-7.8282,13.207a1.7829,1.7829,0,0,0-1.2895,1.629,1.5427,1.5427,0,0,0,1.06,1.4,6.3706,6.3706,0,0,0,2.7017.4981,8.6693,8.6693,0,0,0,2.7891-.4277q1.2656-.4278,1.2656-1.4473a1.1819,1.1819,0,0,0-.375-.9024,1.8411,1.8411,0,0,0-1.0254-.4453q-.65-.0937-2.2676-.1406Q308.0489,632.77,307.123,632.6523Zm2.2032-5.0039a2.619,2.619,0,0,0,1.91-.7207,2.4963,2.4963,0,0,0,.7383-1.8691,2.5833,2.5833,0,0,0-2.625-2.66,2.7546,2.7546,0,0,0-1.8516.6973,2.7908,2.7908,0,0,0-.082,3.8438A2.6185,2.6185,0,0,0,309.3262,627.6484Z"/>
    <path class="bb5e5ff4-fd70-4e33-b657-e710b0fd21c5" d="M326.3535,633.1328h-1.84v-7.1836a8.4373,8.4373,0,0,0-.1582-1.8984,1.9968,1.9968,0,0,0-.75-1.0957,2.154,2.154,0,0,0-1.3653-.4629,2.9557,2.9557,0,0,0-2.373,1.16,4.7355,4.7355,0,0,0-.9551,3.1055v6.375h-1.84V617.1367h1.84v6.34a3.904,3.904,0,0,1,3.5859-2.5078,4.0742,4.0742,0,0,1,1.8575.41,3.1138,3.1138,0,0,1,1.248,1.0781,4.3006,4.3006,0,0,1,.5918,1.3184,10.3506,10.3506,0,0,1,.1582,2.1738Z"/>
    <path class="bb5e5ff4-fd70-4e33-b657-e710b0fd21c5" d="M335.4,631.8789v1.4531a13.0713,13.0713,0,0,1-1.6875.1289q-3.4336,0-3.4336-3.59v-7.1328h-2.0977v-1.4414h2.0977l.082-2.9766,1.711-.164v3.1406h2.6484v1.4414h-2.6484v7.4394q0,1.83,1.8984,1.83A9.0509,9.0509,0,0,0,335.4,631.8789Z"/>
    <path class="bb5e5ff4-fd70-4e33-b657-e710b0fd21c5" d="M352.7441,633.1328h-1.7226v-7.6055a3.0688,3.0688,0,0,0-.7149-2.3085,2.4474,2.4474,0,0,0-1.7343-.668,2.9787,2.9787,0,0,0-2.3614,1.125,4.4253,4.4253,0,0,0-.955,2.9648v6.4922h-1.84V621.2969h1.711v2.18a4.2592,4.2592,0,0,1,3.7382-2.5078,3.7011,3.7011,0,0,1,2.2559.6855,3.6364,3.6364,0,0,1,1.2773,1.541,9.3656,9.3656,0,0,1,.3457,3.0938Z"/>
    <path class="bb5e5ff4-fd70-4e33-b657-e710b0fd21c5" d="M360.666,633.4609a4.4958,4.4958,0,0,1-3.8027-1.8056,7.2209,7.2209,0,0,1-1.3653-4.4815,6.456,6.456,0,0,1,1.5352-4.5156,4.9519,4.9519,0,0,1,3.82-1.6894,4.6656,4.6656,0,0,1,3.8613,1.7773,6.9125,6.9125,0,0,1,1.4122,4.4394,6.6473,6.6473,0,0,1-1.5235,4.5225A4.9738,4.9738,0,0,1,360.666,633.4609Zm.1406-1.5234a2.9282,2.9282,0,0,0,2.3555-1.16,5.65,5.65,0,0,0,.9492-3.6093,5.2562,5.2562,0,0,0-.9961-3.5684,3.0478,3.0478,0,0,0-2.332-1.1074,2.933,2.933,0,0,0-2.32,1.1191,5.4262,5.4262,0,0,0-.9492,3.545,5.64,5.64,0,0,0,.9492,3.6738A2.9681,2.9681,0,0,0,360.8066,631.9375Z"/>
    <path class="bb5e5ff4-fd70-4e33-b657-e710b0fd21c5" d="M382.2168,621.2969,378.81,633.1328h-1.4912l-2.6426-8.789-2.4258,8.789h-1.5117l-3.5567-11.8359h1.8457l2.5782,8.8242,2.46-8.8242H375.41l2.664,8.8594,2.66-8.8594Z"/>
  </g>
  <circle class="f1610ba6-3d2b-4f1b-800b-ffba6afbcce0" cx="83.7746" cy="661.0901" r="15.3333"/>
  <g>
    <path class="bb5e5ff4-fd70-4e33-b657-e710b0fd21c5" d="M111.1152,668.09h-2.0039v-15.996h2.0039Z"/>
    <path class="bb5e5ff4-fd70-4e33-b657-e710b0fd21c5" d="M130.2051,668.09h-1.8164q-.1054-.5625-.211-2.1328a4.2633,4.2633,0,0,1-4.1484,2.461,4.1631,4.1631,0,0,1-3.0586-1.0557,3.4437,3.4437,0,0,1-1.0664-2.5352,3.5544,3.5544,0,0,1,1.5234-2.9521q1.5235-1.1557,5.18-1.1562.4922,0,1.57.0468a6.8109,6.8109,0,0,0-.2168-2.0332,1.8113,1.8113,0,0,0-.92-1.0019,3.9356,3.9356,0,0,0-1.8515-.375q-2.8008,0-3.2579,2.1328l-1.6992-.293q.6212-3.27,5.2266-3.2695a4.638,4.638,0,0,1,3.4746,1.084,5.4286,5.4286,0,0,1,1.0254,3.7558v5.0274A10.0018,10.0018,0,0,0,130.2051,668.09Zm-2.0274-5.9179q-1.125-.07-1.7109-.07a6.6672,6.6672,0,0,0-3.3867.7168,2.2924,2.2924,0,0,0-1.2071,2.0908,1.9555,1.9555,0,0,0,.65,1.48,2.647,2.647,0,0,0,1.8809.61,3.4931,3.4931,0,0,0,2.7363-1.21,4.1479,4.1479,0,0,0,1.0723-2.8427Q128.2129,662.6191,128.1777,662.1719Z"/>
    <path class="bb5e5ff4-fd70-4e33-b657-e710b0fd21c5" d="M135.4785,668.09h-1.84v-15.996h1.84Z"/>
    <path class="bb5e5ff4-fd70-4e33-b657-e710b0fd21c5" d="M140.998,668.09h-1.84V656.2539h1.6172V659.02a5.938,5.938,0,0,1,1.7168-2.5371,3.123,3.123,0,0,1,1.7637-.58,7.2428,7.2428,0,0,1,.7265.0469v1.7578h-.375a3.24,3.24,0,0,0-2.5312,1.1368,4.615,4.615,0,0,0-1.0782,2.9882Z"/>
    <path class="bb5e5ff4-fd70-4e33-b657-e710b0fd21c5" d="M154.8848,664.5625l1.7109.3516a4.8161,4.8161,0,0,1-1.8281,2.5107,5.2766,5.2766,0,0,1-3.1992.9932,4.9768,4.9768,0,0,1-3.9258-1.7061,7.4508,7.4508,0,0,1,.0586-9.0439,5.0308,5.0308,0,0,1,3.914-1.7422,4.7281,4.7281,0,0,1,3.7325,1.6055,7.2182,7.2182,0,0,1,1.4472,4.8046h-8.6015q0,2.6836,1.125,3.6211a3.6638,3.6638,0,0,0,2.3789.9375A3.2506,3.2506,0,0,0,154.8848,664.5625Zm-.1055-3.5977a5.1353,5.1353,0,0,0-.3281-1.7695,3.0185,3.0185,0,0,0-1.0313-1.3183,2.8272,2.8272,0,0,0-1.7461-.545,3.1187,3.1187,0,0,0-2.3261.9844,4.0738,4.0738,0,0,0-1.0723,2.6484Z"/>
    <path class="bb5e5ff4-fd70-4e33-b657-e710b0fd21c5" d="M168.8184,668.09H167.002q-.1056-.5625-.211-2.1328a4.2633,4.2633,0,0,1-4.1484,2.461,4.1631,4.1631,0,0,1-3.0586-1.0557,3.4433,3.4433,0,0,1-1.0664-2.5352,3.5544,3.5544,0,0,1,1.5234-2.9521q1.5234-1.1557,5.18-1.1562.4922,0,1.57.0468a6.8109,6.8109,0,0,0-.2168-2.0332,1.8117,1.8117,0,0,0-.92-1.0019,3.936,3.936,0,0,0-1.8516-.375q-2.8008,0-3.2578,2.1328l-1.6992-.293q.6212-3.27,5.2266-3.2695a4.638,4.638,0,0,1,3.4746,1.084,5.4286,5.4286,0,0,1,1.0254,3.7558v5.0274A10.0018,10.0018,0,0,0,168.8184,668.09Zm-2.0274-5.9179q-1.125-.07-1.7109-.07a6.667,6.667,0,0,0-3.3867.7168,2.2924,2.2924,0,0,0-1.2071,2.0908,1.9555,1.9555,0,0,0,.65,1.48,2.647,2.647,0,0,0,1.8809.61,3.4931,3.4931,0,0,0,2.7363-1.21,4.1479,4.1479,0,0,0,1.0723-2.8427Q166.8262,662.6191,166.791,662.1719Z"/>
    <path class="bb5e5ff4-fd70-4e33-b657-e710b0fd21c5" d="M181.498,652.0938V668.09h-1.664v-2.0273a4.005,4.005,0,0,1-3.7432,2.3555,4.1272,4.1272,0,0,1-3.415-1.7412,7.0259,7.0259,0,0,1-1.3379-4.4053,7.48,7.48,0,0,1,1.3242-4.5332,4.1465,4.1465,0,0,1,3.5156-1.8125,4.0759,4.0759,0,0,1,3.4805,1.9453v-5.7773Zm-1.84,8.73a3.3507,3.3507,0,0,0-.9492-2.4961,3.054,3.054,0,0,0-2.2149-.9375,2.6829,2.6829,0,0,0-2.2558,1.2188,5.7424,5.7424,0,0,0-.8848,3.4219,6.6276,6.6276,0,0,0,.8145,3.621,2.5383,2.5383,0,0,0,2.2324,1.2422,3,3,0,0,0,2.2734-1.0781,3.6326,3.6326,0,0,0,.9844-2.5312Z"/>
    <path class="bb5e5ff4-fd70-4e33-b657-e710b0fd21c5" d="M193.3018,656.2539l-4.7452,13.2207q-1.0312,2.858-3.2959,2.8574a5.8458,5.8458,0,0,1-1.583-.2461v-1.4414a5.6261,5.6261,0,0,0,1.2305.1641,2.1889,2.1889,0,0,0,1.47-.5039,5.6408,5.6408,0,0,0,1.1807-2.4561l-4.0947-11.5947h1.8691l3.1787,8.8945,3.2363-8.8945Z"/>
    <path class="bb5e5ff4-fd70-4e33-b657-e710b0fd21c5" d="M206.5059,666.8359v1.4532a13.0918,13.0918,0,0,1-1.6875.1289q-3.4336,0-3.4336-3.59v-7.1328h-2.0977v-1.4414h2.0977l.082-2.9766,1.7109-.164v3.1406h2.6485v1.4414h-2.6485v7.44q0,1.83,1.8985,1.83A9.04,9.04,0,0,0,206.5059,666.8359Z"/>
    <path class="bb5e5ff4-fd70-4e33-b657-e710b0fd21c5" d="M217.8027,668.09h-1.84v-7.1835a8.4317,8.4317,0,0,0-.1582-1.8985,1.9968,1.9968,0,0,0-.75-1.0957,2.1537,2.1537,0,0,0-1.3652-.4629,2.9556,2.9556,0,0,0-2.3731,1.16,4.7352,4.7352,0,0,0-.9551,3.1054v6.375h-1.84v-15.996h1.84v6.34a3.9041,3.9041,0,0,1,3.586-2.5078,4.074,4.074,0,0,1,1.8574.41,3.1141,3.1141,0,0,1,1.248,1.0782,4.2977,4.2977,0,0,1,.5918,1.3183,10.3511,10.3511,0,0,1,.1582,2.1739Z"/>
    <path class="bb5e5ff4-fd70-4e33-b657-e710b0fd21c5" d="M223.3809,652.0938v2.0507H221.4v-2.0507Zm-.0586,4.16V668.09h-1.84V656.2539Z"/>
    <path class="bb5e5ff4-fd70-4e33-b657-e710b0fd21c5" d="M236.3184,668.09h-1.7227v-7.6054a3.0693,3.0693,0,0,0-.7148-2.3086,2.4482,2.4482,0,0,0-1.7344-.668,2.9784,2.9784,0,0,0-2.3613,1.125,4.4249,4.4249,0,0,0-.9551,2.9649V668.09h-1.84V656.2539h1.711v2.18a4.2592,4.2592,0,0,1,3.7383-2.5078,3.7008,3.7008,0,0,1,2.2558.6855,3.638,3.638,0,0,1,1.2774,1.541,9.3687,9.3687,0,0,1,.3457,3.0938Z"/>
    <path class="bb5e5ff4-fd70-4e33-b657-e710b0fd21c5" d="M249.7715,668.09h-1.9072l-3.459-6.6084-2.5674,2.9522V668.09h-1.84v-15.996h1.84v10.2539l5.498-6.0938h1.9668l-3.6972,4.1563Z"/>
    <path class="bb5e5ff4-fd70-4e33-b657-e710b0fd21c5" d="M260.19,668.09h-2.004v-15.996h2.004Z"/>
    <path class="bb5e5ff4-fd70-4e33-b657-e710b0fd21c5" d="M277.8379,664.5625l1.7109.3516a4.8156,4.8156,0,0,1-1.8281,2.5107,5.2764,5.2764,0,0,1-3.1992.9932,4.9768,4.9768,0,0,1-3.9258-1.7061,7.4508,7.4508,0,0,1,.0586-9.0439,5.031,5.031,0,0,1,3.9141-1.7422,4.728,4.728,0,0,1,3.7324,1.6055,7.2182,7.2182,0,0,1,1.4472,4.8046h-8.6015q0,2.6836,1.125,3.6211a3.664,3.664,0,0,0,2.3789.9375A3.2506,3.2506,0,0,0,277.8379,664.5625Zm-.1055-3.5977a5.1353,5.1353,0,0,0-.3281-1.7695,3.0177,3.0177,0,0,0-1.0313-1.3183,2.8269,2.8269,0,0,0-1.746-.545,3.1188,3.1188,0,0,0-2.3262.9844,4.0743,4.0743,0,0,0-1.0723,2.6484Z"/>
    <path class="bb5e5ff4-fd70-4e33-b657-e710b0fd21c5" d="M291.7715,668.09h-1.8164q-.1055-.5625-.211-2.1328a4.2633,4.2633,0,0,1-4.1484,2.461,4.1631,4.1631,0,0,1-3.0586-1.0557,3.4437,3.4437,0,0,1-1.0664-2.5352,3.5544,3.5544,0,0,1,1.5234-2.9521q1.5236-1.1557,5.18-1.1562.4923,0,1.57.0468a6.8109,6.8109,0,0,0-.2168-2.0332,1.8113,1.8113,0,0,0-.92-1.0019,3.9356,3.9356,0,0,0-1.8515-.375q-2.8008,0-3.2579,2.1328l-1.6992-.293q.6211-3.27,5.2266-3.2695A4.638,4.638,0,0,1,290.5,657.01a5.4286,5.4286,0,0,1,1.0254,3.7558v5.0274A10.0018,10.0018,0,0,0,291.7715,668.09Zm-2.0274-5.9179q-1.125-.07-1.7109-.07a6.6672,6.6672,0,0,0-3.3867.7168,2.2923,2.2923,0,0,0-1.207,2.0908,1.9558,1.9558,0,0,0,.65,1.48,2.647,2.647,0,0,0,1.8809.61,3.4931,3.4931,0,0,0,2.7363-1.21,4.1479,4.1479,0,0,0,1.0723-2.8427Q289.7793,662.6191,289.7441,662.1719Z"/>
    <path class="bb5e5ff4-fd70-4e33-b657-e710b0fd21c5" d="M300.5723,666.8359v1.4532a13.0918,13.0918,0,0,1-1.6875.1289q-3.4336,0-3.4336-3.59v-7.1328h-2.0977v-1.4414h2.0977l.082-2.9766,1.7109-.164v3.1406h2.6485v1.4414h-2.6485v7.44q0,1.83,1.8985,1.83A9.039,9.039,0,0,0,300.5723,666.8359Z"/>
    <path class="bb5e5ff4-fd70-4e33-b657-e710b0fd21c5" d="M317.8691,668.09h-1.84v-7.1835a8.4317,8.4317,0,0,0-.1582-1.8985,1.9968,1.9968,0,0,0-.75-1.0957,2.1537,2.1537,0,0,0-1.3652-.4629,2.9556,2.9556,0,0,0-2.3731,1.16,4.7352,4.7352,0,0,0-.9551,3.1054v6.375h-1.84v-15.996h1.84v6.34a3.9041,3.9041,0,0,1,3.586-2.5078,4.074,4.074,0,0,1,1.8574.41,3.1141,3.1141,0,0,1,1.248,1.0782,4.2977,4.2977,0,0,1,.5918,1.3183,10.3511,10.3511,0,0,1,.1582,2.1739Z"/>
    <path class="bb5e5ff4-fd70-4e33-b657-e710b0fd21c5" d="M329.3652,664.5625l1.711.3516a4.8157,4.8157,0,0,1-1.8282,2.5107,5.2762,5.2762,0,0,1-3.1992.9932,4.9768,4.9768,0,0,1-3.9258-1.7061,7.4508,7.4508,0,0,1,.0586-9.0439,5.0312,5.0312,0,0,1,3.9141-1.7422,4.7279,4.7279,0,0,1,3.7324,1.6055,7.2182,7.2182,0,0,1,1.4473,4.8046h-8.6016q0,2.6836,1.125,3.6211a3.664,3.664,0,0,0,2.3789.9375A3.2506,3.2506,0,0,0,329.3652,664.5625Zm-.1054-3.5977a5.1353,5.1353,0,0,0-.3282-1.7695A3.0175,3.0175,0,0,0,327.9,657.877a2.8272,2.8272,0,0,0-1.7461-.545,3.1188,3.1188,0,0,0-2.3262.9844,4.0742,4.0742,0,0,0-1.0722,2.6484Z"/>
    <path class="bb5e5ff4-fd70-4e33-b657-e710b0fd21c5" d="M343.2988,668.09h-1.8164q-.1054-.5625-.2109-2.1328a4.2633,4.2633,0,0,1-4.1485,2.461,4.1628,4.1628,0,0,1-3.0585-1.0557,3.4434,3.4434,0,0,1-1.0665-2.5352,3.5545,3.5545,0,0,1,1.5235-2.9521q1.5234-1.1557,5.18-1.1562.4922,0,1.57.0468a6.8142,6.8142,0,0,0-.2168-2.0332,1.8117,1.8117,0,0,0-.92-1.0019,3.9363,3.9363,0,0,0-1.8516-.375q-2.8008,0-3.2578,2.1328l-1.6992-.293q.621-3.27,5.2265-3.2695a4.6378,4.6378,0,0,1,3.4746,1.084,5.4286,5.4286,0,0,1,1.0254,3.7558v5.0274A10.0074,10.0074,0,0,0,343.2988,668.09Zm-2.0273-5.9179q-1.125-.07-1.711-.07a6.6672,6.6672,0,0,0-3.3867.7168,2.2923,2.2923,0,0,0-1.207,2.0908,1.9555,1.9555,0,0,0,.65,1.48,2.6467,2.6467,0,0,0,1.8808.61,3.4934,3.4934,0,0,0,2.7364-1.21,4.1483,4.1483,0,0,0,1.0722-2.8427Q341.3066,662.6191,341.2715,662.1719Z"/>
    <path class="bb5e5ff4-fd70-4e33-b657-e710b0fd21c5" d="M348.5723,668.09h-1.84v-15.996h1.84Z"/>
    <path class="bb5e5ff4-fd70-4e33-b657-e710b0fd21c5" d="M357.6191,666.8359v1.4532a13.0892,13.0892,0,0,1-1.6875.1289q-3.4335,0-3.4336-3.59v-7.1328H350.4v-1.4414h2.0976l.0821-2.9766,1.7109-.164v3.1406H356.94v1.4414H354.291v7.44q0,1.83,1.8985,1.83A9.0378,9.0378,0,0,0,357.6191,666.8359Z"/>
    <path class="bb5e5ff4-fd70-4e33-b657-e710b0fd21c5" d="M368.916,668.09h-1.84v-7.1835a8.4377,8.4377,0,0,0-.1582-1.8985,1.9968,1.9968,0,0,0-.75-1.0957,2.154,2.154,0,0,0-1.3653-.4629,2.9555,2.9555,0,0,0-2.373,1.16,4.7352,4.7352,0,0,0-.9551,3.1054v6.375h-1.84v-15.996h1.84v6.34a3.904,3.904,0,0,1,3.5859-2.5078,4.0742,4.0742,0,0,1,1.8575.41,3.1148,3.1148,0,0,1,1.248,1.0782,4.3,4.3,0,0,1,.5918,1.3183,10.3511,10.3511,0,0,1,.1582,2.1739Z"/>
    <path class="bb5e5ff4-fd70-4e33-b657-e710b0fd21c5" d="M374.4941,652.0938v2.0507h-1.98v-2.0507Zm-.0586,4.16V668.09h-1.84V656.2539Z"/>
    <path class="bb5e5ff4-fd70-4e33-b657-e710b0fd21c5" d="M379.9434,668.09h-1.84v-15.996h1.84Z"/>
    <path class="bb5e5ff4-fd70-4e33-b657-e710b0fd21c5" d="M391.7471,656.2539l-4.7451,13.2207q-1.0312,2.858-3.2959,2.8574a5.8459,5.8459,0,0,1-1.5831-.2461v-1.4414a5.6261,5.6261,0,0,0,1.2305.1641,2.1889,2.1889,0,0,0,1.47-.5039,5.6408,5.6408,0,0,0,1.1807-2.4561l-4.0947-11.5947h1.8691l3.1787,8.8945,3.2364-8.8945Z"/>
    <path class="bb5e5ff4-fd70-4e33-b657-e710b0fd21c5" d="M407.4,664.5625l1.7109.3516a4.8156,4.8156,0,0,1-1.8281,2.5107,5.2764,5.2764,0,0,1-3.1992.9932,4.9768,4.9768,0,0,1-3.9258-1.7061,7.4508,7.4508,0,0,1,.0586-9.0439,5.031,5.031,0,0,1,3.9141-1.7422,4.728,4.728,0,0,1,3.7324,1.6055,7.2182,7.2182,0,0,1,1.4472,4.8046H400.709q0,2.6836,1.125,3.6211a3.664,3.664,0,0,0,2.3789.9375A3.2506,3.2506,0,0,0,407.4,664.5625Zm-.1055-3.5977a5.1353,5.1353,0,0,0-.3281-1.7695,3.0177,3.0177,0,0,0-1.0313-1.3183,2.8269,2.8269,0,0,0-1.746-.545,3.1188,3.1188,0,0,0-2.3262.9844,4.0743,4.0743,0,0,0-1.0723,2.6484Z"/>
    <path class="bb5e5ff4-fd70-4e33-b657-e710b0fd21c5" d="M421.4043,668.09h-1.7227v-7.6054a3.0689,3.0689,0,0,0-.7148-2.3086,2.4482,2.4482,0,0,0-1.7344-.668,2.9784,2.9784,0,0,0-2.3613,1.125,4.4254,4.4254,0,0,0-.9551,2.9649V668.09h-1.84V656.2539h1.7109v2.18a4.2592,4.2592,0,0,1,3.7383-2.5078,3.7011,3.7011,0,0,1,2.2559.6855,3.6384,3.6384,0,0,1,1.2773,1.541,9.366,9.366,0,0,1,.3457,3.0938Z"/>
    <path class="bb5e5ff4-fd70-4e33-b657-e710b0fd21c5" d="M429.3262,668.418a4.4962,4.4962,0,0,1-3.8028-1.8057,7.2212,7.2212,0,0,1-1.3652-4.4814,6.4556,6.4556,0,0,1,1.5352-4.5157,4.9521,4.9521,0,0,1,3.82-1.6894,4.6659,4.6659,0,0,1,3.8613,1.7773,6.9133,6.9133,0,0,1,1.4121,4.44,6.6471,6.6471,0,0,1-1.5234,4.5224A4.9741,4.9741,0,0,1,429.3262,668.418Zm.1406-1.5235a2.9284,2.9284,0,0,0,2.3555-1.16,5.65,5.65,0,0,0,.9492-3.6094,5.2564,5.2564,0,0,0-.9961-3.5684,3.0482,3.0482,0,0,0-2.332-1.1074,2.9335,2.9335,0,0,0-2.32,1.1192,5.4259,5.4259,0,0,0-.9492,3.5449,5.64,5.64,0,0,0,.9492,3.6738A2.9683,2.9683,0,0,0,429.4668,666.8945Z"/>
    <path class="bb5e5ff4-fd70-4e33-b657-e710b0fd21c5" d="M446.8691,668.09h-1.664v-2.2617a4.0322,4.0322,0,0,1-3.7676,2.59,3.5706,3.5706,0,0,1-2.85-1.1963,5.0426,5.0426,0,0,1-1.0352-3.4014v-7.5664h1.84v7.5586a3.1865,3.1865,0,0,0,.7324,2.42,2.3524,2.3524,0,0,0,1.6113.6621,2.7468,2.7468,0,0,0,1.6114-.5039,3.868,3.868,0,0,0,1.2011-1.4355,4.37,4.37,0,0,0,.48-2.0332v-6.668h1.84Z"/>
    <path class="bb5e5ff4-fd70-4e33-b657-e710b0fd21c5" d="M460.2168,654.4023v1.4649a3.3064,3.3064,0,0,0-1.6934.293,1.5512,1.5512,0,0,0-.5683,1.0546,4.2811,4.2811,0,0,1,1.1367,2.8594,3.6773,3.6773,0,0,1-1.2363,2.7774,4.6591,4.6591,0,0,1-3.3223,1.16,4.0415,4.0415,0,0,1-.8086-.07,5.91,5.91,0,0,0-.8086-.1289,1.4182,1.4182,0,0,0-.7617.3105.9414.9414,0,0,0-.4453.8028.8729.8729,0,0,0,.6445.914,13.9866,13.9866,0,0,0,3.0352.27,17.2373,17.2373,0,0,1,2.9941.2754,3.0422,3.0422,0,0,1,1.6348.9609,2.63,2.63,0,0,1,.6679,1.8223q0,3.3867-5.9531,3.3867a7.6979,7.6979,0,0,1-4.1191-.8506,2.6,2.6,0,0,1-1.2949-2.2695,2.3825,2.3825,0,0,1,1.8046-2.37,2.2355,2.2355,0,0,1-1.16-1.9092,2.2947,2.2947,0,0,1,1.6406-2.0967,3.8576,3.8576,0,0,1-1.5351-3.127,3.6217,3.6217,0,0,1,1.3125-2.8808,4.7475,4.7475,0,0,1,3.1992-1.125,5.7123,5.7123,0,0,1,2.4258.5039,2.2643,2.2643,0,0,1,.8144-1.6055,3.4123,3.4123,0,0,1,1.94-.4453Q459.8887,654.3789,460.2168,654.4023Zm-7.8281,13.2071a1.7829,1.7829,0,0,0-1.2891,1.6289,1.5429,1.5429,0,0,0,1.0606,1.4,6.3674,6.3674,0,0,0,2.7011.498,8.6688,8.6688,0,0,0,2.7891-.4277q1.2656-.4278,1.2656-1.4473a1.1817,1.1817,0,0,0-.375-.9023,1.84,1.84,0,0,0-1.0254-.4453q-.65-.0937-2.2676-.1407Q453.3145,667.7266,452.3887,667.6094Zm2.2031-5.0039a2.62,2.62,0,0,0,1.91-.7207,2.4968,2.4968,0,0,0,.7382-1.8692,2.5829,2.5829,0,0,0-2.625-2.66,2.7541,2.7541,0,0,0-1.8515.6972,2.792,2.792,0,0,0-.0821,3.8438A2.6186,2.6186,0,0,0,454.5918,662.6055Z"/>
    <path class="bb5e5ff4-fd70-4e33-b657-e710b0fd21c5" d="M471.6191,668.09h-1.84v-7.1835a8.4317,8.4317,0,0,0-.1582-1.8985,1.9968,1.9968,0,0,0-.75-1.0957,2.1537,2.1537,0,0,0-1.3652-.4629,2.9556,2.9556,0,0,0-2.3731,1.16,4.7352,4.7352,0,0,0-.9551,3.1054v6.375h-1.84v-15.996h1.84v6.34a3.9041,3.9041,0,0,1,3.586-2.5078,4.074,4.074,0,0,1,1.8574.41,3.1141,3.1141,0,0,1,1.248,1.0782,4.2977,4.2977,0,0,1,.5918,1.3183,10.3511,10.3511,0,0,1,.1582,2.1739Z"/>
  </g>
  <circle class="a261114c-ce70-426e-a1ed-0af8a82b5c14" cx="83.7746" cy="713" r="15.3333"/>
  <g>
    <path class="bb5e5ff4-fd70-4e33-b657-e710b0fd21c5" d="M111.1152,720h-2.0039V704.0039h2.0039Z"/>
    <path class="bb5e5ff4-fd70-4e33-b657-e710b0fd21c5" d="M134.5879,708.1641,131.1816,720H129.69l-2.6426-8.7891L124.6211,720h-1.5117l-3.5567-11.8359h1.8457l2.5782,8.8242,2.46-8.8242h1.3448l2.664,8.8593,2.66-8.8593Z"/>
    <path class="bb5e5ff4-fd70-4e33-b657-e710b0fd21c5" d="M140.834,720.3281a4.4958,4.4958,0,0,1-3.8027-1.8056,7.2209,7.2209,0,0,1-1.3653-4.4815,6.4555,6.4555,0,0,1,1.5352-4.5156,4.9519,4.9519,0,0,1,3.82-1.6895,4.6657,4.6657,0,0,1,3.8613,1.7774,6.913,6.913,0,0,1,1.4121,4.4394,6.6474,6.6474,0,0,1-1.5234,4.5225A4.9741,4.9741,0,0,1,140.834,720.3281Zm.1406-1.5234a2.9282,2.9282,0,0,0,2.3555-1.16,5.65,5.65,0,0,0,.9492-3.6093,5.2562,5.2562,0,0,0-.9961-3.5684,3.0479,3.0479,0,0,0-2.332-1.1074,2.933,2.933,0,0,0-2.32,1.1191,5.4255,5.4255,0,0,0-.9493,3.5449,5.64,5.64,0,0,0,.9493,3.6739A2.9683,2.9683,0,0,0,140.9746,718.8047Z"/>
    <path class="bb5e5ff4-fd70-4e33-b657-e710b0fd21c5" d="M158.377,720h-1.6641v-2.2617a4.0322,4.0322,0,0,1-3.7676,2.59,3.57,3.57,0,0,1-2.85-1.1963,5.0421,5.0421,0,0,1-1.0352-3.4013v-7.5664h1.84v7.5586a3.1867,3.1867,0,0,0,.7324,2.42,2.3524,2.3524,0,0,0,1.6113.6621,2.7475,2.7475,0,0,0,1.6114-.5039,3.8692,3.8692,0,0,0,1.2011-1.4356,4.3688,4.3688,0,0,0,.4805-2.0332v-6.6679h1.84Z"/>
    <path class="bb5e5ff4-fd70-4e33-b657-e710b0fd21c5" d="M163.8965,720h-1.84V704.0039h1.84Z"/>
    <path class="bb5e5ff4-fd70-4e33-b657-e710b0fd21c5" d="M176.8223,704.0039V720h-1.6641v-2.0273a4.0048,4.0048,0,0,1-3.7432,2.3554A4.1272,4.1272,0,0,1,168,718.5869a7.0257,7.0257,0,0,1-1.3379-4.4053,7.48,7.48,0,0,1,1.3242-4.5332,4.1466,4.1466,0,0,1,3.5157-1.8125,4.076,4.076,0,0,1,3.48,1.9454v-5.7774Zm-1.84,8.7305a3.3506,3.3506,0,0,0-.9492-2.4961,3.0539,3.0539,0,0,0-2.2148-.9375,2.6828,2.6828,0,0,0-2.2559,1.2187,5.7433,5.7433,0,0,0-.8848,3.4219,6.628,6.628,0,0,0,.8145,3.6211,2.5386,2.5386,0,0,0,2.2324,1.2422,3,3,0,0,0,2.2734-1.0781,3.6329,3.6329,0,0,0,.9844-2.5313Z"/>
    <path class="bb5e5ff4-fd70-4e33-b657-e710b0fd21c5" d="M188.3418,720h-1.84V704.0039h1.84Z"/>
    <path class="bb5e5ff4-fd70-4e33-b657-e710b0fd21c5" d="M193.92,704.0039v2.0508h-1.98v-2.0508Zm-.0586,4.16V720h-1.84V708.1641Z"/>
    <path class="bb5e5ff4-fd70-4e33-b657-e710b0fd21c5" d="M207.3027,720h-1.9072l-3.459-6.6084-2.5674,2.9522V720h-1.84V704.0039h1.84v10.2539l5.4981-6.0937h1.9668l-3.6973,4.1562Z"/>
    <path class="bb5e5ff4-fd70-4e33-b657-e710b0fd21c5" d="M216.8418,716.4727l1.7109.3515a4.8158,4.8158,0,0,1-1.8281,2.5108,5.2761,5.2761,0,0,1-3.1992.9931,4.9767,4.9767,0,0,1-3.9258-1.706,7.451,7.451,0,0,1,.0586-9.044,5.0315,5.0315,0,0,1,3.9141-1.7422,4.7283,4.7283,0,0,1,3.7324,1.6055,7.2191,7.2191,0,0,1,1.4473,4.8047H210.15q0,2.6837,1.125,3.6211a3.664,3.664,0,0,0,2.3789.9375A3.2507,3.2507,0,0,0,216.8418,716.4727Zm-.1055-3.5977a5.1349,5.1349,0,0,0-.3281-1.7695,3.0185,3.0185,0,0,0-1.0312-1.3184,2.8273,2.8273,0,0,0-1.7461-.5449,3.1184,3.1184,0,0,0-2.3262.9844,4.0739,4.0739,0,0,0-1.0723,2.6484Z"/>
    <path class="bb5e5ff4-fd70-4e33-b657-e710b0fd21c5" d="M232.8848,718.7461v1.4531a13.0738,13.0738,0,0,1-1.6875.1289q-3.4337,0-3.4336-3.59v-7.1328H225.666v-1.4414h2.0977l.082-2.9766,1.7109-.1641v3.1407h2.6485v1.4414h-2.6485v7.4394q0,1.83,1.8985,1.83A9.0509,9.0509,0,0,0,232.8848,718.7461Z"/>
    <path class="bb5e5ff4-fd70-4e33-b657-e710b0fd21c5" d="M238.7793,720.3281a4.4958,4.4958,0,0,1-3.8027-1.8056,7.2209,7.2209,0,0,1-1.3653-4.4815,6.4555,6.4555,0,0,1,1.5352-4.5156,4.952,4.952,0,0,1,3.82-1.6895,4.6657,4.6657,0,0,1,3.8613,1.7774,6.913,6.913,0,0,1,1.4121,4.4394,6.6474,6.6474,0,0,1-1.5234,4.5225A4.9741,4.9741,0,0,1,238.7793,720.3281Zm.1406-1.5234a2.9282,2.9282,0,0,0,2.3555-1.16,5.65,5.65,0,0,0,.9492-3.6093,5.2562,5.2562,0,0,0-.9961-3.5684,3.0478,3.0478,0,0,0-2.332-1.1074,2.933,2.933,0,0,0-2.32,1.1191,5.4261,5.4261,0,0,0-.9492,3.5449,5.6406,5.6406,0,0,0,.9492,3.6739A2.9683,2.9683,0,0,0,238.92,718.8047Z"/>
    <path class="bb5e5ff4-fd70-4e33-b657-e710b0fd21c5" d="M260.8223,716.4727l1.7109.3515a4.8163,4.8163,0,0,1-1.8281,2.5108,5.2765,5.2765,0,0,1-3.1992.9931,4.9767,4.9767,0,0,1-3.9258-1.706,7.451,7.451,0,0,1,.0586-9.044,5.0312,5.0312,0,0,1,3.914-1.7422,4.7284,4.7284,0,0,1,3.7325,1.6055,7.2185,7.2185,0,0,1,1.4472,4.8047h-8.6015q0,2.6837,1.125,3.6211a3.6638,3.6638,0,0,0,2.3789.9375A3.2507,3.2507,0,0,0,260.8223,716.4727Zm-.1055-3.5977a5.1349,5.1349,0,0,0-.3281-1.7695,3.0187,3.0187,0,0,0-1.0313-1.3184,2.8271,2.8271,0,0,0-1.7461-.5449,3.1184,3.1184,0,0,0-2.3261.9844,4.0734,4.0734,0,0,0-1.0723,2.6484Z"/>
    <path class="bb5e5ff4-fd70-4e33-b657-e710b0fd21c5" d="M274.7559,720H272.94q-.1056-.5625-.211-2.1328a4.2633,4.2633,0,0,1-4.1484,2.4609,4.163,4.163,0,0,1-3.0586-1.0556,3.4433,3.4433,0,0,1-1.0664-2.5352,3.5543,3.5543,0,0,1,1.5234-2.9521q1.5234-1.1559,5.18-1.1563.4921,0,1.57.0469a6.81,6.81,0,0,0-.2168-2.0332,1.8115,1.8115,0,0,0-.92-1.002,3.936,3.936,0,0,0-1.8516-.375q-2.8008,0-3.2578,2.1328l-1.6992-.2929q.6211-3.27,5.2266-3.27a4.6384,4.6384,0,0,1,3.4746,1.084,5.4289,5.4289,0,0,1,1.0254,3.7559v5.0273A10.0021,10.0021,0,0,0,274.7559,720Zm-2.0274-5.918q-1.125-.07-1.7109-.07a6.668,6.668,0,0,0-3.3867.7168,2.2925,2.2925,0,0,0-1.2071,2.0908,1.9557,1.9557,0,0,0,.65,1.4805,2.6474,2.6474,0,0,0,1.8809.61,3.4934,3.4934,0,0,0,2.7363-1.21,4.148,4.148,0,0,0,1.0723-2.8428Q272.7637,714.5294,272.7285,714.082Z"/>
    <path class="bb5e5ff4-fd70-4e33-b657-e710b0fd21c5" d="M283.5566,718.7461v1.4531a13.0713,13.0713,0,0,1-1.6875.1289q-3.4335,0-3.4336-3.59v-7.1328h-2.0976v-1.4414h2.0976l.0821-2.9766,1.7109-.1641v3.1407h2.6485v1.4414h-2.6485v7.4394q0,1.83,1.8985,1.83A9.05,9.05,0,0,0,283.5566,718.7461Z"/>
    <path class="bb5e5ff4-fd70-4e33-b657-e710b0fd21c5" d="M300.8535,720h-1.84v-7.1836a8.4367,8.4367,0,0,0-.1582-1.8984,1.9968,1.9968,0,0,0-.75-1.0957,2.154,2.154,0,0,0-1.3653-.4629,2.9557,2.9557,0,0,0-2.373,1.16,4.7355,4.7355,0,0,0-.9551,3.1055V720h-1.84V704.0039h1.84v6.34a3.9041,3.9041,0,0,1,3.5859-2.5079,4.0742,4.0742,0,0,1,1.8575.41,3.1138,3.1138,0,0,1,1.248,1.0781,4.3006,4.3006,0,0,1,.5918,1.3184,10.3506,10.3506,0,0,1,.1582,2.1738Z"/>
    <path class="bb5e5ff4-fd70-4e33-b657-e710b0fd21c5" d="M312.35,716.4727l1.7109.3515a4.8158,4.8158,0,0,1-1.8281,2.5108,5.2761,5.2761,0,0,1-3.1992.9931,4.9767,4.9767,0,0,1-3.9258-1.706,7.451,7.451,0,0,1,.0586-9.044,5.0315,5.0315,0,0,1,3.9141-1.7422,4.7282,4.7282,0,0,1,3.7324,1.6055,7.2191,7.2191,0,0,1,1.4473,4.8047h-8.6016q0,2.6837,1.125,3.6211a3.664,3.664,0,0,0,2.3789.9375A3.2507,3.2507,0,0,0,312.35,716.4727Zm-.1055-3.5977a5.1349,5.1349,0,0,0-.3281-1.7695,3.0185,3.0185,0,0,0-1.0312-1.3184,2.8271,2.8271,0,0,0-1.7461-.5449,3.1184,3.1184,0,0,0-2.3262.9844,4.0744,4.0744,0,0,0-1.0723,2.6484Z"/>
    <path class="bb5e5ff4-fd70-4e33-b657-e710b0fd21c5" d="M326.2832,720h-1.8164q-.1054-.5625-.2109-2.1328a4.2635,4.2635,0,0,1-4.1485,2.4609,4.1632,4.1632,0,0,1-3.0586-1.0556,3.4437,3.4437,0,0,1-1.0664-2.5352,3.5541,3.5541,0,0,1,1.5235-2.9521q1.5234-1.1559,5.18-1.1563.4923,0,1.57.0469a6.8138,6.8138,0,0,0-.2168-2.0332,1.8117,1.8117,0,0,0-.92-1.002,3.9356,3.9356,0,0,0-1.8515-.375q-2.8008,0-3.2578,2.1328l-1.6993-.2929q.6212-3.27,5.2266-3.27a4.6384,4.6384,0,0,1,3.4746,1.084,5.4289,5.4289,0,0,1,1.0254,3.7559v5.0273A10.0021,10.0021,0,0,0,326.2832,720Zm-2.0273-5.918q-1.125-.07-1.711-.07a6.6683,6.6683,0,0,0-3.3867.7168,2.2924,2.2924,0,0,0-1.207,2.0908,1.9557,1.9557,0,0,0,.65,1.4805,2.6471,2.6471,0,0,0,1.8808.61,3.4938,3.4938,0,0,0,2.7364-1.21,4.1484,4.1484,0,0,0,1.0722-2.8428Q324.291,714.5294,324.2559,714.082Z"/>
    <path class="bb5e5ff4-fd70-4e33-b657-e710b0fd21c5" d="M331.5566,720h-1.84V704.0039h1.84Z"/>
    <path class="bb5e5ff4-fd70-4e33-b657-e710b0fd21c5" d="M340.6035,718.7461v1.4531a13.0713,13.0713,0,0,1-1.6875.1289q-3.4335,0-3.4336-3.59v-7.1328h-2.0976v-1.4414h2.0976l.0821-2.9766,1.7109-.1641v3.1407h2.6484v1.4414h-2.6484v7.4394q0,1.83,1.8984,1.83A9.05,9.05,0,0,0,340.6035,718.7461Z"/>
    <path class="bb5e5ff4-fd70-4e33-b657-e710b0fd21c5" d="M351.9,720h-1.84v-7.1836a8.4307,8.4307,0,0,0-.1582-1.8984,1.9957,1.9957,0,0,0-.75-1.0957,2.1537,2.1537,0,0,0-1.3652-.4629,2.9557,2.9557,0,0,0-2.373,1.16,4.735,4.735,0,0,0-.9551,3.1055V720h-1.84V704.0039h1.84v6.34a3.904,3.904,0,0,1,3.5859-2.5079,4.0738,4.0738,0,0,1,1.8574.41,3.1141,3.1141,0,0,1,1.2481,1.0781,4.3006,4.3006,0,0,1,.5918,1.3184,10.3506,10.3506,0,0,1,.1582,2.1738Z"/>
    <path class="bb5e5ff4-fd70-4e33-b657-e710b0fd21c5" d="M357.4785,704.0039v2.0508H355.498v-2.0508Zm-.0586,4.16V720h-1.84V708.1641Z"/>
    <path class="bb5e5ff4-fd70-4e33-b657-e710b0fd21c5" d="M368.9043,716.4727l1.7109.3515a4.8158,4.8158,0,0,1-1.8281,2.5108,5.2761,5.2761,0,0,1-3.1992.9931,4.9767,4.9767,0,0,1-3.9258-1.706,7.451,7.451,0,0,1,.0586-9.044,5.0315,5.0315,0,0,1,3.9141-1.7422,4.7283,4.7283,0,0,1,3.7324,1.6055,7.2191,7.2191,0,0,1,1.4473,4.8047h-8.6016q0,2.6837,1.125,3.6211a3.664,3.664,0,0,0,2.3789.9375A3.2507,3.2507,0,0,0,368.9043,716.4727Zm-.1055-3.5977a5.1349,5.1349,0,0,0-.3281-1.7695,3.0185,3.0185,0,0,0-1.0312-1.3184,2.8273,2.8273,0,0,0-1.7461-.5449,3.1184,3.1184,0,0,0-2.3262.9844,4.0739,4.0739,0,0,0-1.0723,2.6484Z"/>
    <path class="bb5e5ff4-fd70-4e33-b657-e710b0fd21c5" d="M375.42,720h-1.84V708.1641h1.6172V710.93a5.9371,5.9371,0,0,1,1.7168-2.5371,3.1229,3.1229,0,0,1,1.7636-.58,7.2147,7.2147,0,0,1,.7266.0469v1.7578h-.375a3.24,3.24,0,0,0-2.5313,1.1367,4.6155,4.6155,0,0,0-1.0781,2.9883Z"/>
  </g>
  <g>
    <path class="b46bbe1a-fa9f-4b97-b045-76e0ab7218e7" d="M308.7324,474.3379v3.5a20.8982,20.8982,0,0,0-3.5,6.3711,22.04,22.04,0,0,0-1.4629,7.6152q0,.356.0547,1.1758h-6.166a18.9965,18.9965,0,0,1,1.6064-7.1914,22.3,22.3,0,0,1,4.3135-6.7949h-8.6543l.3965-4.6758Z"/>
    <path class="b46bbe1a-fa9f-4b97-b045-76e0ab7218e7" d="M320.7773,488.8438H325.18V493H310.8242v-4.1562h4.6074v-8.8731a16.797,16.797,0,0,1-4.1015,1.3672v-4.1973q3.9784-.8613,5.4-3.09h4.0468Z"/>
    <path class="b46bbe1a-fa9f-4b97-b045-76e0ab7218e7" d="M332.918,488.01V493h-5.1953v-4.99Z"/>
    <path class="b46bbe1a-fa9f-4b97-b045-76e0ab7218e7" d="M349.4336,488.42l-.2051,4.58H335.01v-4.293l3.1767-2.2285q.6987-.4789,2.6084-2.0576a14.3916,14.3916,0,0,0,2.4922-2.4268,3.0945,3.0945,0,0,0,.582-1.7773,1.999,1.999,0,0,0-.5078-1.4287,1.7381,1.7381,0,0,0-1.33-.54q-2.0581,0-2.3047,3.2266l-4.7168-.916a7.3776,7.3776,0,0,1,2.5771-4.9014,7.6645,7.6645,0,0,1,4.86-1.6064,7.4015,7.4015,0,0,1,4.956,1.6269,5.3954,5.3954,0,0,1,1.9209,4.334,6.2456,6.2456,0,0,1-1.0459,3.4317q-1.0458,1.6273-6.1181,4.9765Z"/>
    <path class="b46bbe1a-fa9f-4b97-b045-76e0ab7218e7" d="M355.2031,483.7988a3.2964,3.2964,0,0,1-2.7549-1.3193,5.5906,5.5906,0,0,1-1.0185-3.5068,5.3824,5.3824,0,0,1,1.0459-3.5069,3.4133,3.4133,0,0,1,2.7822-1.2783,3.2385,3.2385,0,0,1,2.7891,1.36,5.8393,5.8393,0,0,1,.9844,3.5068,5.2878,5.2878,0,0,1-1.0528,3.4658A3.4182,3.4182,0,0,1,355.2031,483.7988Zm12.2637-9.4609L356.1289,493h-2.58l11.418-18.6621ZM355.21,481.7617q.9638,0,.9638-2.7344a9.1168,9.1168,0,0,0-.1836-2.0234q-.183-.7792-.7666-.7793-.936,0-.9365,2.6387a8.7881,8.7881,0,0,0,.1963,2.2627Q354.6811,481.7617,355.21,481.7617Zm10.6093,11.375a3.2933,3.2933,0,0,1-2.7461-1.3174,5.5645,5.5645,0,0,1-1.02-3.5019,5.4126,5.4126,0,0,1,1.0411-3.5088,3.6079,3.6079,0,0,1,5.5126-.0068,5.5279,5.5279,0,0,1,1.0479,3.5976,5.2749,5.2749,0,0,1-1.0547,3.4541A3.422,3.422,0,0,1,365.8193,493.1367Zm.0274-2.0371q.9769,0,.9775-2.7275a9.3994,9.3994,0,0,0-.1787-2.0254q-.18-.7837-.7715-.7842-.9639,0-.9638,2.6182a8.7791,8.7791,0,0,0,.1992,2.292A.7569.7569,0,0,0,365.8467,491.1Z"/>
  </g>
  <g>
    <path class="b7777232-9864-4fda-9b02-a9ee903f26ed" d="M336.5938,101.8911l4.7851-.7656q.3,1.7226,1.791,1.7226a1.9642,1.9642,0,0,0,1.7979-1.0937,6.1174,6.1174,0,0,0,.622-3.0078c0-.1455-.0048-.333-.0136-.5606a4.1172,4.1172,0,0,1-3.6367,1.8047,5.6432,5.6432,0,0,1-4.1836-1.6679,5.7824,5.7824,0,0,1-1.6543-4.252,6.0125,6.0125,0,0,1,1.9482-4.6279,7.4094,7.4094,0,0,1,5.2295-1.7979,6.7585,6.7585,0,0,1,5.7,2.4951,10.4755,10.4755,0,0,1,1.9277,6.583,12.4126,12.4126,0,0,1-2.0019,7.3282,6.8357,6.8357,0,0,1-5.9678,2.83,6.7024,6.7024,0,0,1-4.2861-1.333A5.58,5.58,0,0,1,336.5938,101.8911Zm6.6171-5.8652a2.0891,2.0891,0,0,0,1.4629-.5811,2.1327,2.1327,0,0,0,.6289-1.6474,2.4379,2.4379,0,0,0-.5742-1.709,1.88,1.88,0,0,0-1.4492-.6289,1.8989,1.8989,0,0,0-1.4014.5879,2.41,2.41,0,0,0-.581,1.7636,2.3132,2.3132,0,0,0,.54,1.627A1.7831,1.7831,0,0,0,343.2109,96.0259Z"/>
    <path class="b7777232-9864-4fda-9b02-a9ee903f26ed" d="M358.208,101.604v4.99h-5.1953v-4.99Z"/>
    <path class="b7777232-9864-4fda-9b02-a9ee903f26ed" d="M374.71,93.21l-4.7715.5742q-.22-2.2426-1.8242-2.2422-2.3189,0-2.3868,4.8535a4.1115,4.1115,0,0,1,3.7647-1.7226,5.4822,5.4822,0,0,1,4.1152,1.6269,5.7551,5.7551,0,0,1,1.5811,4.1836,5.96,5.96,0,0,1-2.003,4.5391,7.2857,7.2857,0,0,1-5.1611,1.8593,7.67,7.67,0,0,1-4.1152-1.1142,6.86,6.86,0,0,1-2.7207-3.2881,13.5408,13.5408,0,0,1,1.0937-11.9971,6.5994,6.5994,0,0,1,5.7285-2.8369,7.031,7.031,0,0,1,4.4776,1.4424A6.0919,6.0919,0,0,1,374.71,93.21Zm-6.8565,9.8711a1.9034,1.9034,0,0,0,1.5088-.6426,2.3031,2.3031,0,0,0,.5625-1.5723,2.4626,2.4626,0,0,0-.5557-1.6,1.79,1.79,0,0,0-1.4609-.6836,1.9667,1.9667,0,0,0-1.5361.6768,2.3508,2.3508,0,0,0-.6035,1.62,2.2548,2.2548,0,0,0,.5761,1.5586A1.9284,1.9284,0,0,0,367.8535,103.0806Z"/>
    <path class="b7777232-9864-4fda-9b02-a9ee903f26ed" d="M380.4932,97.3931a3.2962,3.2962,0,0,1-2.7549-1.3194,5.5906,5.5906,0,0,1-1.0186-3.5068,5.3825,5.3825,0,0,1,1.0459-3.5068,3.4131,3.4131,0,0,1,2.7823-1.2784,3.2385,3.2385,0,0,1,2.789,1.36,5.8388,5.8388,0,0,1,.9844,3.5068,5.2883,5.2883,0,0,1-1.0527,3.4658A3.4182,3.4182,0,0,1,380.4932,97.3931Zm12.2636-9.461-11.3379,18.6621h-2.58l11.4179-18.6621ZM380.5,95.356q.9639,0,.9639-2.7344a9.1245,9.1245,0,0,0-.1836-2.0235q-.1831-.7793-.7666-.7793-.9361,0-.9366,2.6387a8.7917,8.7917,0,0,0,.1963,2.2627Q379.9713,95.3559,380.5,95.356Zm10.6094,11.375a3.2936,3.2936,0,0,1-2.7461-1.3174,5.5642,5.5642,0,0,1-1.02-3.502,5.4131,5.4131,0,0,1,1.041-3.5088,3.608,3.608,0,0,1,5.5127-.0068,5.529,5.529,0,0,1,1.0478,3.5977,5.2746,5.2746,0,0,1-1.0547,3.4541A3.4221,3.4221,0,0,1,391.1094,106.731Zm.0273-2.0372q.9771,0,.9776-2.7275a9.3935,9.3935,0,0,0-.1788-2.0254q-.18-.7836-.7714-.7842-.9639,0-.9639,2.6182a8.7785,8.7785,0,0,0,.1992,2.292A.7568.7568,0,0,0,391.1367,104.6938Z"/>
  </g>
  <g>
    <path class="b46bbe1a-fa9f-4b97-b045-76e0ab7218e7" d="M176.4131,132.3081h4.4023v4.1563H166.46v-4.1563h4.6074v-8.873a16.7963,16.7963,0,0,1-4.1016,1.3671V120.605q3.9786-.8613,5.4-3.09h4.0469Z"/>
    <path class="b46bbe1a-fa9f-4b97-b045-76e0ab7218e7" d="M182.3467,131.7612l4.7851-.7656q.3,1.7226,1.7911,1.7227a1.9631,1.9631,0,0,0,1.7978-1.0938,6.1059,6.1059,0,0,0,.6221-3.0078c0-.1455-.0049-.333-.0137-.5605a4.1162,4.1162,0,0,1-3.6367,1.8046,5.6433,5.6433,0,0,1-4.1836-1.6679,5.7865,5.7865,0,0,1-1.6543-4.252,6.0125,6.0125,0,0,1,1.9482-4.6279,7.41,7.41,0,0,1,5.23-1.7979,6.7614,6.7614,0,0,1,5.7012,2.4952,10.4745,10.4745,0,0,1,1.9277,6.583,12.4055,12.4055,0,0,1-2.0029,7.3281,6.8334,6.8334,0,0,1-5.9678,2.83,6.7069,6.7069,0,0,1-4.2861-1.333A5.5814,5.5814,0,0,1,182.3467,131.7612Zm6.6172-5.8652a2.0877,2.0877,0,0,0,1.4629-.5811,2.133,2.133,0,0,0,.6289-1.6474,2.4377,2.4377,0,0,0-.5743-1.709,1.88,1.88,0,0,0-1.4492-.6289,1.9,1.9,0,0,0-1.4013.5879,2.41,2.41,0,0,0-.5811,1.7637,2.3131,2.3131,0,0,0,.54,1.6269A1.7861,1.7861,0,0,0,188.9639,125.896Z"/>
    <path class="b46bbe1a-fa9f-4b97-b045-76e0ab7218e7" d="M203.9619,131.4741v4.99h-5.1953v-4.99Z"/>
    <path class="b46bbe1a-fa9f-4b97-b045-76e0ab7218e7" d="M220.4775,131.8843l-.205,4.58H206.0537v-4.293l3.1768-2.2285q.6987-.4791,2.6084-2.0576a14.4029,14.4029,0,0,0,2.4922-2.4268,3.0945,3.0945,0,0,0,.582-1.7773,2,2,0,0,0-.5078-1.4288,1.7386,1.7386,0,0,0-1.33-.54q-2.0581,0-2.3047,3.2266l-4.7168-.9161a7.3781,7.3781,0,0,1,2.5772-4.9013,7.6641,7.6641,0,0,1,4.86-1.6065,7.4013,7.4013,0,0,1,4.9561,1.627,5.3957,5.3957,0,0,1,1.9209,4.334,6.2459,6.2459,0,0,1-1.0459,3.4316q-1.046,1.6275-6.1182,4.9766Z"/>
    <path class="b46bbe1a-fa9f-4b97-b045-76e0ab7218e7" d="M226.2471,127.2632a3.2962,3.2962,0,0,1-2.7549-1.3194,5.59,5.59,0,0,1-1.0186-3.5068A5.3827,5.3827,0,0,1,223.52,118.93a3.413,3.413,0,0,1,2.7823-1.2783,3.2384,3.2384,0,0,1,2.789,1.36,5.8388,5.8388,0,0,1,.9844,3.5068,5.2886,5.2886,0,0,1-1.0527,3.4659A3.4184,3.4184,0,0,1,226.2471,127.2632Zm12.2636-9.461-11.3378,18.6622h-2.58l11.4179-18.6622Zm-12.2568,7.4239q.9639,0,.9639-2.7344a9.1168,9.1168,0,0,0-.1836-2.0234q-.1831-.7794-.7666-.7793-.936,0-.9365,2.6386a8.7929,8.7929,0,0,0,.1962,2.2627Q225.7252,125.2262,226.2539,125.2261Zm10.6094,11.375a3.2936,3.2936,0,0,1-2.7461-1.3174,5.564,5.564,0,0,1-1.02-3.502,5.4131,5.4131,0,0,1,1.041-3.5088,3.608,3.608,0,0,1,5.5127-.0068,5.529,5.529,0,0,1,1.0478,3.5977,5.2751,5.2751,0,0,1-1.0546,3.4541A3.4224,3.4224,0,0,1,236.8633,136.6011Zm.0273-2.0371q.9771,0,.9776-2.7276a9.4007,9.4007,0,0,0-.1787-2.0254q-.18-.7836-.7715-.7841-.9639,0-.9639,2.6181a8.778,8.778,0,0,0,.1992,2.292A.7569.7569,0,0,0,236.8906,134.564Z"/>
  </g>
</svg>
